<mxfile host="Electron" agent="Mozilla/5.0 (Windows NT 10.0; Win64; x64) AppleWebKit/537.36 (KHTML, like Gecko) draw.io/26.2.2 Chrome/134.0.6998.178 Electron/35.1.2 Safari/537.36" version="26.2.2">
  <diagram name="第 1 页" id="73qNDdFPcz90kJ-hbEem">
    <mxGraphModel dx="1739" dy="1348" grid="1" gridSize="10" guides="1" tooltips="1" connect="1" arrows="1" fold="1" page="1" pageScale="1" pageWidth="827" pageHeight="1169" math="0" shadow="0">
      <root>
        <mxCell id="0" />
        <mxCell id="1" parent="0" />
        <mxCell id="aXQiDmJrJk_II0E27TAM-1" value="6" style="ellipse;whiteSpace=wrap;html=1;" parent="1" vertex="1">
          <mxGeometry x="1140" y="40" width="20" height="20" as="geometry" />
        </mxCell>
        <mxCell id="aXQiDmJrJk_II0E27TAM-2" value="clearscreen()" style="whiteSpace=wrap;html=1;" parent="1" vertex="1">
          <mxGeometry x="830" y="150" width="120" height="60" as="geometry" />
        </mxCell>
        <mxCell id="aXQiDmJrJk_II0E27TAM-4" value="" style="verticalLabelPosition=bottom;html=1;verticalAlign=top;strokeWidth=2;shape=mxgraph.lean_mapping.physical_pull;pointerEvents=1;" parent="1" vertex="1">
          <mxGeometry x="1140" y="80" width="20" height="10" as="geometry" />
        </mxCell>
        <mxCell id="aXQiDmJrJk_II0E27TAM-8" value="" style="endArrow=none;html=1;rounded=0;entryX=0.5;entryY=1;entryDx=0;entryDy=0;exitX=0.5;exitY=0;exitDx=0;exitDy=0;" parent="1" source="aXQiDmJrJk_II0E27TAM-2" target="aXQiDmJrJk_II0E27TAM-1" edge="1">
          <mxGeometry width="50" height="50" relative="1" as="geometry">
            <mxPoint x="1100" y="270" as="sourcePoint" />
            <mxPoint x="1150" y="220" as="targetPoint" />
            <Array as="points">
              <mxPoint x="890" y="100" />
              <mxPoint x="1150" y="100" />
            </Array>
          </mxGeometry>
        </mxCell>
        <mxCell id="aXQiDmJrJk_II0E27TAM-9" value="track()" style="whiteSpace=wrap;html=1;" parent="1" vertex="1">
          <mxGeometry x="890" y="410" width="120" height="60" as="geometry" />
        </mxCell>
        <mxCell id="aXQiDmJrJk_II0E27TAM-10" value="track()" style="whiteSpace=wrap;html=1;" parent="1" vertex="1">
          <mxGeometry x="970" y="570" width="120" height="60" as="geometry" />
        </mxCell>
        <mxCell id="aXQiDmJrJk_II0E27TAM-11" value="track()" style="whiteSpace=wrap;html=1;" parent="1" vertex="1">
          <mxGeometry x="1120" y="570" width="120" height="60" as="geometry" />
        </mxCell>
        <mxCell id="aXQiDmJrJk_II0E27TAM-12" value="track()" style="whiteSpace=wrap;html=1;" parent="1" vertex="1">
          <mxGeometry x="1040" y="410" width="120" height="60" as="geometry" />
        </mxCell>
        <mxCell id="aXQiDmJrJk_II0E27TAM-13" value="track()" style="whiteSpace=wrap;html=1;" parent="1" vertex="1">
          <mxGeometry x="1360" y="400" width="120" height="60" as="geometry" />
        </mxCell>
        <mxCell id="aXQiDmJrJk_II0E27TAM-14" value="track()" style="whiteSpace=wrap;html=1;" parent="1" vertex="1">
          <mxGeometry x="1440" y="570" width="120" height="60" as="geometry" />
        </mxCell>
        <mxCell id="aXQiDmJrJk_II0E27TAM-15" value="track()" style="whiteSpace=wrap;html=1;" parent="1" vertex="1">
          <mxGeometry x="1280" y="570" width="120" height="60" as="geometry" />
        </mxCell>
        <mxCell id="aXQiDmJrJk_II0E27TAM-16" value="track()" style="whiteSpace=wrap;html=1;" parent="1" vertex="1">
          <mxGeometry x="1190" y="410" width="120" height="60" as="geometry" />
        </mxCell>
        <mxCell id="aXQiDmJrJk_II0E27TAM-18" value="&lt;span style=&quot;font-size: 12px; text-wrap-mode: wrap; background-color: rgb(236, 236, 236);&quot;&gt;&quot;ah_ma_review.txt&quot;&lt;/span&gt;" style="html=1;verticalAlign=bottom;startArrow=oval;startFill=1;endArrow=block;startSize=8;curved=0;rounded=0;" parent="1" edge="1">
          <mxGeometry x="1" y="-70" width="60" relative="1" as="geometry">
            <mxPoint x="960" y="370" as="sourcePoint" />
            <mxPoint x="960" y="400" as="targetPoint" />
            <mxPoint as="offset" />
          </mxGeometry>
        </mxCell>
        <mxCell id="aXQiDmJrJk_II0E27TAM-20" value="&lt;span style=&quot;font-size: 12px; text-wrap-mode: wrap; background-color: rgb(236, 236, 236);&quot;&gt;&quot;desa_review.txt&quot;&lt;/span&gt;" style="html=1;verticalAlign=bottom;startArrow=oval;startFill=1;endArrow=block;startSize=8;curved=0;rounded=0;" parent="1" edge="1">
          <mxGeometry x="1" y="-70" width="60" relative="1" as="geometry">
            <mxPoint x="1041" y="530" as="sourcePoint" />
            <mxPoint x="1041" y="560" as="targetPoint" />
            <mxPoint as="offset" />
          </mxGeometry>
        </mxCell>
        <mxCell id="aXQiDmJrJk_II0E27TAM-23" value="&lt;span style=&quot;font-size: 12px; text-wrap-mode: wrap; background-color: rgb(236, 236, 236);&quot;&gt;&quot;fun_&lt;/span&gt;&lt;div&gt;&lt;span style=&quot;font-size: 12px; text-wrap-mode: wrap; background-color: rgb(236, 236, 236);&quot;&gt;review.txt&quot;&lt;/span&gt;&lt;/div&gt;" style="html=1;verticalAlign=bottom;startArrow=oval;startFill=1;endArrow=block;startSize=8;curved=0;rounded=0;" parent="1" edge="1">
          <mxGeometry x="1" y="-50" width="60" relative="1" as="geometry">
            <mxPoint x="1110" y="350" as="sourcePoint" />
            <mxPoint x="1110" y="380" as="targetPoint" />
            <mxPoint as="offset" />
          </mxGeometry>
        </mxCell>
        <mxCell id="aXQiDmJrJk_II0E27TAM-25" value="&lt;span style=&quot;font-size: 12px; text-wrap-mode: wrap; background-color: rgb(236, 236, 236);&quot;&gt;&quot;happy_thai_&lt;/span&gt;&lt;div&gt;&lt;span style=&quot;font-size: 12px; text-wrap-mode: wrap; background-color: rgb(236, 236, 236);&quot;&gt;review.txt&quot;&lt;/span&gt;&lt;/div&gt;" style="html=1;verticalAlign=bottom;startArrow=oval;startFill=1;endArrow=block;startSize=8;curved=0;rounded=0;" parent="1" edge="1">
          <mxGeometry x="1" y="-50" width="60" relative="1" as="geometry">
            <mxPoint x="1190" y="540" as="sourcePoint" />
            <mxPoint x="1190" y="570" as="targetPoint" />
            <mxPoint y="-1" as="offset" />
          </mxGeometry>
        </mxCell>
        <mxCell id="aXQiDmJrJk_II0E27TAM-27" value="&lt;span style=&quot;font-size: 12px; text-wrap-mode: wrap; background-color: rgb(236, 236, 236);&quot;&gt;&quot;mrs_yau_&lt;/span&gt;&lt;div&gt;&lt;span style=&quot;font-size: 12px; text-wrap-mode: wrap; background-color: rgb(236, 236, 236);&quot;&gt;review.txt&quot;&lt;/span&gt;&lt;/div&gt;" style="html=1;verticalAlign=bottom;startArrow=oval;startFill=1;endArrow=block;startSize=8;curved=0;rounded=0;" parent="1" edge="1">
          <mxGeometry x="0.3333" y="-50" width="60" relative="1" as="geometry">
            <mxPoint x="1260" y="360" as="sourcePoint" />
            <mxPoint x="1260" y="390" as="targetPoint" />
            <mxPoint as="offset" />
          </mxGeometry>
        </mxCell>
        <mxCell id="aXQiDmJrJk_II0E27TAM-29" value="&lt;span style=&quot;font-size: 12px; text-wrap-mode: wrap;&quot;&gt;&quot;mye_review.txt&quot;&lt;/span&gt;" style="html=1;verticalAlign=bottom;startArrow=oval;startFill=1;endArrow=block;startSize=8;curved=0;rounded=0;" parent="1" edge="1">
          <mxGeometry x="0.3333" y="-60" width="60" relative="1" as="geometry">
            <mxPoint x="1350" y="540" as="sourcePoint" />
            <mxPoint x="1350" y="570" as="targetPoint" />
            <mxPoint as="offset" />
          </mxGeometry>
        </mxCell>
        <mxCell id="aXQiDmJrJk_II0E27TAM-31" value="&lt;span style=&quot;font-size: 12px; text-wrap-mode: wrap;&quot;&gt;&quot;taiwan_&lt;/span&gt;&lt;div&gt;&lt;span style=&quot;font-size: 12px; text-wrap-mode: wrap;&quot;&gt;review.txt&quot;&lt;/span&gt;&lt;/div&gt;" style="html=1;verticalAlign=bottom;startArrow=oval;startFill=1;endArrow=block;startSize=8;curved=0;rounded=0;" parent="1" edge="1">
          <mxGeometry x="0.3333" y="-50" width="60" relative="1" as="geometry">
            <mxPoint x="1430" y="360" as="sourcePoint" />
            <mxPoint x="1430" y="390" as="targetPoint" />
            <mxPoint as="offset" />
          </mxGeometry>
        </mxCell>
        <mxCell id="aXQiDmJrJk_II0E27TAM-33" value="&lt;span style=&quot;font-size: 12px; text-wrap-mode: wrap;&quot;&gt;&quot;wei_duo_&lt;/span&gt;&lt;div&gt;&lt;span style=&quot;font-size: 12px; text-wrap-mode: wrap;&quot;&gt;review.txt&quot;&lt;/span&gt;&lt;/div&gt;" style="html=1;verticalAlign=bottom;startArrow=oval;startFill=1;endArrow=block;startSize=8;curved=0;rounded=0;" parent="1" edge="1">
          <mxGeometry x="0.3333" y="-50" width="60" relative="1" as="geometry">
            <mxPoint x="1510" y="540" as="sourcePoint" />
            <mxPoint x="1510" y="570" as="targetPoint" />
            <mxPoint as="offset" />
          </mxGeometry>
        </mxCell>
        <mxCell id="aXQiDmJrJk_II0E27TAM-34" value="handle_invalid_option()" style="whiteSpace=wrap;html=1;" parent="1" vertex="1">
          <mxGeometry x="1510" y="400" width="130" height="60" as="geometry" />
        </mxCell>
        <mxCell id="aXQiDmJrJk_II0E27TAM-40" value="quit()" style="whiteSpace=wrap;html=1;" parent="1" vertex="1">
          <mxGeometry x="1380" y="220" width="120" height="60" as="geometry" />
        </mxCell>
        <mxCell id="aXQiDmJrJk_II0E27TAM-42" value="selech ch()" style="whiteSpace=wrap;html=1;" parent="1" vertex="1">
          <mxGeometry x="1220" y="220" width="120" height="60" as="geometry" />
        </mxCell>
        <mxCell id="aXQiDmJrJk_II0E27TAM-45" value="(+)" style="text;html=1;align=center;verticalAlign=middle;resizable=0;points=[];autosize=1;strokeColor=none;fillColor=none;" parent="1" vertex="1">
          <mxGeometry x="1050" y="315" width="40" height="30" as="geometry" />
        </mxCell>
        <mxCell id="aXQiDmJrJk_II0E27TAM-46" value="" style="endArrow=none;html=1;rounded=0;entryX=0.5;entryY=1;entryDx=0;entryDy=0;exitX=0.5;exitY=0;exitDx=0;exitDy=0;" parent="1" source="aXQiDmJrJk_II0E27TAM-9" target="aXQiDmJrJk_II0E27TAM-42" edge="1">
          <mxGeometry width="50" height="50" relative="1" as="geometry">
            <mxPoint x="1280" y="410" as="sourcePoint" />
            <mxPoint x="1330" y="360" as="targetPoint" />
            <Array as="points">
              <mxPoint x="950" y="310" />
              <mxPoint x="1280" y="310" />
            </Array>
          </mxGeometry>
        </mxCell>
        <mxCell id="aXQiDmJrJk_II0E27TAM-47" value="" style="endArrow=none;html=1;rounded=0;entryX=0.5;entryY=1;entryDx=0;entryDy=0;exitX=0.5;exitY=0;exitDx=0;exitDy=0;" parent="1" source="aXQiDmJrJk_II0E27TAM-12" target="aXQiDmJrJk_II0E27TAM-42" edge="1">
          <mxGeometry width="50" height="50" relative="1" as="geometry">
            <mxPoint x="1280" y="410" as="sourcePoint" />
            <mxPoint x="1330" y="360" as="targetPoint" />
            <Array as="points">
              <mxPoint x="1100" y="310" />
              <mxPoint x="1280" y="310" />
            </Array>
          </mxGeometry>
        </mxCell>
        <mxCell id="aXQiDmJrJk_II0E27TAM-48" value="" style="endArrow=none;html=1;rounded=0;entryX=0.5;entryY=1;entryDx=0;entryDy=0;exitX=0.5;exitY=0;exitDx=0;exitDy=0;" parent="1" source="aXQiDmJrJk_II0E27TAM-16" target="aXQiDmJrJk_II0E27TAM-42" edge="1">
          <mxGeometry width="50" height="50" relative="1" as="geometry">
            <mxPoint x="1280" y="410" as="sourcePoint" />
            <mxPoint x="1330" y="360" as="targetPoint" />
            <Array as="points">
              <mxPoint x="1250" y="310" />
              <mxPoint x="1280" y="310" />
            </Array>
          </mxGeometry>
        </mxCell>
        <mxCell id="aXQiDmJrJk_II0E27TAM-49" value="" style="endArrow=none;html=1;rounded=0;entryX=0.5;entryY=1;entryDx=0;entryDy=0;exitX=0.5;exitY=0;exitDx=0;exitDy=0;" parent="1" source="aXQiDmJrJk_II0E27TAM-13" target="aXQiDmJrJk_II0E27TAM-42" edge="1">
          <mxGeometry width="50" height="50" relative="1" as="geometry">
            <mxPoint x="1280" y="410" as="sourcePoint" />
            <mxPoint x="1330" y="360" as="targetPoint" />
            <Array as="points">
              <mxPoint x="1420" y="310" />
              <mxPoint x="1280" y="310" />
            </Array>
          </mxGeometry>
        </mxCell>
        <mxCell id="aXQiDmJrJk_II0E27TAM-50" value="" style="endArrow=none;html=1;rounded=0;entryX=0.5;entryY=1;entryDx=0;entryDy=0;exitX=0.5;exitY=0;exitDx=0;exitDy=0;" parent="1" source="aXQiDmJrJk_II0E27TAM-34" target="aXQiDmJrJk_II0E27TAM-42" edge="1">
          <mxGeometry width="50" height="50" relative="1" as="geometry">
            <mxPoint x="1280" y="410" as="sourcePoint" />
            <mxPoint x="1330" y="360" as="targetPoint" />
            <Array as="points">
              <mxPoint x="1575" y="310" />
              <mxPoint x="1280" y="310" />
            </Array>
          </mxGeometry>
        </mxCell>
        <mxCell id="aXQiDmJrJk_II0E27TAM-51" value="" style="endArrow=none;html=1;rounded=0;entryX=0.5;entryY=1;entryDx=0;entryDy=0;exitX=0.5;exitY=0;exitDx=0;exitDy=0;" parent="1" source="aXQiDmJrJk_II0E27TAM-10" target="aXQiDmJrJk_II0E27TAM-42" edge="1">
          <mxGeometry width="50" height="50" relative="1" as="geometry">
            <mxPoint x="1280" y="410" as="sourcePoint" />
            <mxPoint x="1330" y="360" as="targetPoint" />
            <Array as="points">
              <mxPoint x="1030" y="310" />
              <mxPoint x="1280" y="310" />
            </Array>
          </mxGeometry>
        </mxCell>
        <mxCell id="aXQiDmJrJk_II0E27TAM-52" value="" style="endArrow=none;html=1;rounded=0;entryX=0.5;entryY=1;entryDx=0;entryDy=0;exitX=0.5;exitY=0;exitDx=0;exitDy=0;" parent="1" source="aXQiDmJrJk_II0E27TAM-11" target="aXQiDmJrJk_II0E27TAM-42" edge="1">
          <mxGeometry width="50" height="50" relative="1" as="geometry">
            <mxPoint x="1280" y="410" as="sourcePoint" />
            <mxPoint x="1330" y="360" as="targetPoint" />
            <Array as="points">
              <mxPoint x="1180" y="310" />
              <mxPoint x="1280" y="310" />
            </Array>
          </mxGeometry>
        </mxCell>
        <mxCell id="aXQiDmJrJk_II0E27TAM-53" value="" style="endArrow=none;html=1;rounded=0;entryX=0.5;entryY=1;entryDx=0;entryDy=0;exitX=0.5;exitY=0;exitDx=0;exitDy=0;" parent="1" source="aXQiDmJrJk_II0E27TAM-15" target="aXQiDmJrJk_II0E27TAM-42" edge="1">
          <mxGeometry width="50" height="50" relative="1" as="geometry">
            <mxPoint x="1280" y="410" as="sourcePoint" />
            <mxPoint x="1330" y="360" as="targetPoint" />
            <Array as="points">
              <mxPoint x="1340" y="310" />
              <mxPoint x="1280" y="310" />
            </Array>
          </mxGeometry>
        </mxCell>
        <mxCell id="aXQiDmJrJk_II0E27TAM-54" value="" style="endArrow=none;html=1;rounded=0;entryX=0.5;entryY=1;entryDx=0;entryDy=0;exitX=0.5;exitY=0;exitDx=0;exitDy=0;" parent="1" source="aXQiDmJrJk_II0E27TAM-14" target="aXQiDmJrJk_II0E27TAM-42" edge="1">
          <mxGeometry width="50" height="50" relative="1" as="geometry">
            <mxPoint x="1280" y="410" as="sourcePoint" />
            <mxPoint x="1330" y="360" as="targetPoint" />
            <Array as="points">
              <mxPoint x="1500" y="310" />
              <mxPoint x="1280" y="310" />
            </Array>
          </mxGeometry>
        </mxCell>
        <mxCell id="aXQiDmJrJk_II0E27TAM-55" value="invalid_input()" style="whiteSpace=wrap;html=1;" parent="1" vertex="1">
          <mxGeometry x="1520" y="220" width="120" height="60" as="geometry" />
        </mxCell>
        <mxCell id="aXQiDmJrJk_II0E27TAM-57" value="14" style="ellipse;whiteSpace=wrap;html=1;" parent="1" vertex="1">
          <mxGeometry x="940" y="480" width="20" height="20" as="geometry" />
        </mxCell>
        <mxCell id="aXQiDmJrJk_II0E27TAM-58" value="14" style="ellipse;whiteSpace=wrap;html=1;" parent="1" vertex="1">
          <mxGeometry x="1490" y="655" width="20" height="20" as="geometry" />
        </mxCell>
        <mxCell id="aXQiDmJrJk_II0E27TAM-59" value="14" style="ellipse;whiteSpace=wrap;html=1;" parent="1" vertex="1">
          <mxGeometry x="1410" y="488" width="20" height="20" as="geometry" />
        </mxCell>
        <mxCell id="aXQiDmJrJk_II0E27TAM-60" value="14" style="ellipse;whiteSpace=wrap;html=1;" parent="1" vertex="1">
          <mxGeometry x="1330" y="655" width="20" height="20" as="geometry" />
        </mxCell>
        <mxCell id="aXQiDmJrJk_II0E27TAM-61" value="14" style="ellipse;whiteSpace=wrap;html=1;" parent="1" vertex="1">
          <mxGeometry x="1240" y="480" width="20" height="20" as="geometry" />
        </mxCell>
        <mxCell id="aXQiDmJrJk_II0E27TAM-62" value="14" style="ellipse;whiteSpace=wrap;html=1;" parent="1" vertex="1">
          <mxGeometry x="1170" y="655" width="20" height="20" as="geometry" />
        </mxCell>
        <mxCell id="aXQiDmJrJk_II0E27TAM-63" value="14" style="ellipse;whiteSpace=wrap;html=1;" parent="1" vertex="1">
          <mxGeometry x="1090" y="480" width="20" height="20" as="geometry" />
        </mxCell>
        <mxCell id="aXQiDmJrJk_II0E27TAM-64" value="14" style="ellipse;whiteSpace=wrap;html=1;" parent="1" vertex="1">
          <mxGeometry x="1020" y="660" width="20" height="20" as="geometry" />
        </mxCell>
        <mxCell id="aXQiDmJrJk_II0E27TAM-65" value="" style="endArrow=none;html=1;rounded=0;entryX=0.5;entryY=1;entryDx=0;entryDy=0;exitX=0.5;exitY=0;exitDx=0;exitDy=0;" parent="1" source="aXQiDmJrJk_II0E27TAM-57" target="aXQiDmJrJk_II0E27TAM-9" edge="1">
          <mxGeometry width="50" height="50" relative="1" as="geometry">
            <mxPoint x="1090" y="480" as="sourcePoint" />
            <mxPoint x="1140" y="430" as="targetPoint" />
          </mxGeometry>
        </mxCell>
        <mxCell id="aXQiDmJrJk_II0E27TAM-68" value="" style="endArrow=none;html=1;rounded=0;exitX=0.5;exitY=0;exitDx=0;exitDy=0;entryX=0.5;entryY=1;entryDx=0;entryDy=0;" parent="1" source="aXQiDmJrJk_II0E27TAM-63" target="aXQiDmJrJk_II0E27TAM-12" edge="1">
          <mxGeometry width="50" height="50" relative="1" as="geometry">
            <mxPoint x="1090" y="480" as="sourcePoint" />
            <mxPoint x="1140" y="430" as="targetPoint" />
          </mxGeometry>
        </mxCell>
        <mxCell id="aXQiDmJrJk_II0E27TAM-69" value="" style="endArrow=none;html=1;rounded=0;entryX=0.5;entryY=1;entryDx=0;entryDy=0;exitX=0.5;exitY=0;exitDx=0;exitDy=0;" parent="1" source="aXQiDmJrJk_II0E27TAM-61" target="aXQiDmJrJk_II0E27TAM-16" edge="1">
          <mxGeometry width="50" height="50" relative="1" as="geometry">
            <mxPoint x="1090" y="480" as="sourcePoint" />
            <mxPoint x="1140" y="430" as="targetPoint" />
          </mxGeometry>
        </mxCell>
        <mxCell id="aXQiDmJrJk_II0E27TAM-70" value="" style="endArrow=none;html=1;rounded=0;exitX=0.5;exitY=0;exitDx=0;exitDy=0;entryX=0.5;entryY=1;entryDx=0;entryDy=0;" parent="1" source="aXQiDmJrJk_II0E27TAM-64" target="aXQiDmJrJk_II0E27TAM-10" edge="1">
          <mxGeometry width="50" height="50" relative="1" as="geometry">
            <mxPoint x="1090" y="480" as="sourcePoint" />
            <mxPoint x="1140" y="430" as="targetPoint" />
          </mxGeometry>
        </mxCell>
        <mxCell id="aXQiDmJrJk_II0E27TAM-71" value="" style="endArrow=none;html=1;rounded=0;exitX=0.5;exitY=0;exitDx=0;exitDy=0;entryX=0.5;entryY=1;entryDx=0;entryDy=0;" parent="1" source="aXQiDmJrJk_II0E27TAM-62" target="aXQiDmJrJk_II0E27TAM-11" edge="1">
          <mxGeometry width="50" height="50" relative="1" as="geometry">
            <mxPoint x="1090" y="480" as="sourcePoint" />
            <mxPoint x="1140" y="430" as="targetPoint" />
          </mxGeometry>
        </mxCell>
        <mxCell id="aXQiDmJrJk_II0E27TAM-72" value="" style="endArrow=none;html=1;rounded=0;exitX=0.5;exitY=0;exitDx=0;exitDy=0;entryX=0.5;entryY=1;entryDx=0;entryDy=0;" parent="1" source="aXQiDmJrJk_II0E27TAM-60" target="aXQiDmJrJk_II0E27TAM-15" edge="1">
          <mxGeometry width="50" height="50" relative="1" as="geometry">
            <mxPoint x="1370" y="480" as="sourcePoint" />
            <mxPoint x="1420" y="430" as="targetPoint" />
          </mxGeometry>
        </mxCell>
        <mxCell id="aXQiDmJrJk_II0E27TAM-73" value="" style="endArrow=none;html=1;rounded=0;exitX=0.5;exitY=0;exitDx=0;exitDy=0;entryX=0.5;entryY=1;entryDx=0;entryDy=0;" parent="1" source="aXQiDmJrJk_II0E27TAM-58" target="aXQiDmJrJk_II0E27TAM-14" edge="1">
          <mxGeometry width="50" height="50" relative="1" as="geometry">
            <mxPoint x="1370" y="480" as="sourcePoint" />
            <mxPoint x="1490" y="650" as="targetPoint" />
          </mxGeometry>
        </mxCell>
        <mxCell id="aXQiDmJrJk_II0E27TAM-75" value="14" style="ellipse;whiteSpace=wrap;html=1;" parent="1" vertex="1">
          <mxGeometry x="1940" y="50" width="20" height="20" as="geometry" />
        </mxCell>
        <mxCell id="aXQiDmJrJk_II0E27TAM-76" value="clear_screen()" style="whiteSpace=wrap;html=1;" parent="1" vertex="1">
          <mxGeometry x="1670" y="140" width="120" height="60" as="geometry" />
        </mxCell>
        <mxCell id="aXQiDmJrJk_II0E27TAM-77" value="clear_screen()" style="whiteSpace=wrap;html=1;" parent="1" vertex="1">
          <mxGeometry x="1760" y="230" width="120" height="60" as="geometry" />
        </mxCell>
        <mxCell id="aXQiDmJrJk_II0E27TAM-79" value="" style="endArrow=none;html=1;rounded=0;entryX=0.5;entryY=1;entryDx=0;entryDy=0;exitX=0.5;exitY=0;exitDx=0;exitDy=0;" parent="1" source="aXQiDmJrJk_II0E27TAM-76" target="aXQiDmJrJk_II0E27TAM-75" edge="1">
          <mxGeometry width="50" height="50" relative="1" as="geometry">
            <mxPoint x="1880" y="210" as="sourcePoint" />
            <mxPoint x="1930" y="160" as="targetPoint" />
            <Array as="points">
              <mxPoint x="1730" y="90" />
              <mxPoint x="1950" y="90" />
            </Array>
          </mxGeometry>
        </mxCell>
        <mxCell id="aXQiDmJrJk_II0E27TAM-80" value="" style="endArrow=none;html=1;rounded=0;entryX=0.5;entryY=1;entryDx=0;entryDy=0;exitX=0.5;exitY=0;exitDx=0;exitDy=0;" parent="1" source="aXQiDmJrJk_II0E27TAM-77" target="aXQiDmJrJk_II0E27TAM-75" edge="1">
          <mxGeometry width="50" height="50" relative="1" as="geometry">
            <mxPoint x="1880" y="210" as="sourcePoint" />
            <mxPoint x="1930" y="160" as="targetPoint" />
            <Array as="points">
              <mxPoint x="1820" y="180" />
              <mxPoint x="1870" y="180" />
              <mxPoint x="1870" y="90" />
              <mxPoint x="1950" y="90" />
            </Array>
          </mxGeometry>
        </mxCell>
        <mxCell id="aXQiDmJrJk_II0E27TAM-82" value="(+)" style="text;html=1;align=center;verticalAlign=middle;resizable=0;points=[];autosize=1;strokeColor=none;fillColor=none;" parent="1" vertex="1">
          <mxGeometry x="1930" y="90" width="40" height="30" as="geometry" />
        </mxCell>
        <mxCell id="aXQiDmJrJk_II0E27TAM-83" value="give_comment()" style="whiteSpace=wrap;html=1;" parent="1" vertex="1">
          <mxGeometry x="1890" y="230" width="120" height="60" as="geometry" />
        </mxCell>
        <mxCell id="aXQiDmJrJk_II0E27TAM-84" value="" style="endArrow=none;html=1;rounded=0;entryX=0.5;entryY=1;entryDx=0;entryDy=0;exitX=0.5;exitY=0;exitDx=0;exitDy=0;" parent="1" source="aXQiDmJrJk_II0E27TAM-83" target="aXQiDmJrJk_II0E27TAM-75" edge="1">
          <mxGeometry width="50" height="50" relative="1" as="geometry">
            <mxPoint x="1970" y="200" as="sourcePoint" />
            <mxPoint x="1930" y="160" as="targetPoint" />
            <Array as="points">
              <mxPoint x="1950" y="180" />
              <mxPoint x="1870" y="180" />
              <mxPoint x="1870" y="90" />
              <mxPoint x="1950" y="90" />
            </Array>
          </mxGeometry>
        </mxCell>
        <mxCell id="aXQiDmJrJk_II0E27TAM-85" value="clear_screen()" style="whiteSpace=wrap;html=1;" parent="1" vertex="1">
          <mxGeometry x="2020" y="230" width="120" height="60" as="geometry" />
        </mxCell>
        <mxCell id="aXQiDmJrJk_II0E27TAM-86" value="display_review()" style="whiteSpace=wrap;html=1;" parent="1" vertex="1">
          <mxGeometry x="2150" y="230" width="120" height="60" as="geometry" />
        </mxCell>
        <mxCell id="aXQiDmJrJk_II0E27TAM-87" value="" style="endArrow=none;html=1;rounded=0;entryX=0.5;entryY=1;entryDx=0;entryDy=0;exitX=0.5;exitY=0;exitDx=0;exitDy=0;" parent="1" source="aXQiDmJrJk_II0E27TAM-85" target="aXQiDmJrJk_II0E27TAM-75" edge="1">
          <mxGeometry width="50" height="50" relative="1" as="geometry">
            <mxPoint x="2130" y="210" as="sourcePoint" />
            <mxPoint x="2180" y="160" as="targetPoint" />
            <Array as="points">
              <mxPoint x="2080" y="180" />
              <mxPoint x="2130" y="180" />
              <mxPoint x="2130" y="90" />
              <mxPoint x="1950" y="90" />
            </Array>
          </mxGeometry>
        </mxCell>
        <mxCell id="aXQiDmJrJk_II0E27TAM-88" value="" style="endArrow=none;html=1;rounded=0;entryX=0.5;entryY=1;entryDx=0;entryDy=0;exitX=0.5;exitY=0;exitDx=0;exitDy=0;" parent="1" source="aXQiDmJrJk_II0E27TAM-86" target="aXQiDmJrJk_II0E27TAM-75" edge="1">
          <mxGeometry width="50" height="50" relative="1" as="geometry">
            <mxPoint x="1990" y="210" as="sourcePoint" />
            <mxPoint x="2040" y="160" as="targetPoint" />
            <Array as="points">
              <mxPoint x="2210" y="180" />
              <mxPoint x="2130" y="180" />
              <mxPoint x="2130" y="90" />
              <mxPoint x="1950" y="90" />
            </Array>
          </mxGeometry>
        </mxCell>
        <mxCell id="aXQiDmJrJk_II0E27TAM-89" value="quit()" style="whiteSpace=wrap;html=1;" parent="1" vertex="1">
          <mxGeometry x="2170" y="110" width="120" height="60" as="geometry" />
        </mxCell>
        <mxCell id="aXQiDmJrJk_II0E27TAM-90" value="invalid_option()" style="whiteSpace=wrap;html=1;" parent="1" vertex="1">
          <mxGeometry x="2320" y="110" width="120" height="60" as="geometry" />
        </mxCell>
        <mxCell id="aXQiDmJrJk_II0E27TAM-91" value="" style="endArrow=none;html=1;rounded=0;entryX=0.5;entryY=1;entryDx=0;entryDy=0;exitX=0.5;exitY=0;exitDx=0;exitDy=0;" parent="1" source="aXQiDmJrJk_II0E27TAM-89" target="aXQiDmJrJk_II0E27TAM-75" edge="1">
          <mxGeometry width="50" height="50" relative="1" as="geometry">
            <mxPoint x="2120" y="210" as="sourcePoint" />
            <mxPoint x="2170" y="160" as="targetPoint" />
            <Array as="points">
              <mxPoint x="2230" y="90" />
              <mxPoint x="1950" y="90" />
            </Array>
          </mxGeometry>
        </mxCell>
        <mxCell id="aXQiDmJrJk_II0E27TAM-92" value="" style="endArrow=none;html=1;rounded=0;entryX=0.5;entryY=1;entryDx=0;entryDy=0;exitX=0.5;exitY=0;exitDx=0;exitDy=0;" parent="1" source="aXQiDmJrJk_II0E27TAM-90" target="aXQiDmJrJk_II0E27TAM-75" edge="1">
          <mxGeometry width="50" height="50" relative="1" as="geometry">
            <mxPoint x="2120" y="210" as="sourcePoint" />
            <mxPoint x="2170" y="160" as="targetPoint" />
            <Array as="points">
              <mxPoint x="2380" y="90" />
              <mxPoint x="1950" y="90" />
            </Array>
          </mxGeometry>
        </mxCell>
        <mxCell id="aXQiDmJrJk_II0E27TAM-93" value="(+)" style="text;html=1;align=center;verticalAlign=middle;resizable=0;points=[];autosize=1;strokeColor=none;fillColor=none;" parent="1" vertex="1">
          <mxGeometry x="2300" y="80" width="40" height="30" as="geometry" />
        </mxCell>
        <mxCell id="aXQiDmJrJk_II0E27TAM-94" value="(+)" style="text;html=1;align=center;verticalAlign=middle;resizable=0;points=[];autosize=1;strokeColor=none;fillColor=none;" parent="1" vertex="1">
          <mxGeometry x="2160" y="80" width="40" height="30" as="geometry" />
        </mxCell>
        <mxCell id="aXQiDmJrJk_II0E27TAM-95" value="&lt;span style=&quot;font-size: 12px; text-wrap-mode: wrap;&quot;&gt;&quot;text_file&quot;&lt;/span&gt;" style="html=1;verticalAlign=bottom;startArrow=oval;startFill=1;endArrow=block;startSize=8;curved=0;rounded=0;" parent="1" edge="1">
          <mxGeometry x="0.3333" y="-50" width="60" relative="1" as="geometry">
            <mxPoint x="1960" y="200" as="sourcePoint" />
            <mxPoint x="1960" y="230" as="targetPoint" />
            <mxPoint as="offset" />
          </mxGeometry>
        </mxCell>
        <mxCell id="aXQiDmJrJk_II0E27TAM-96" value="&lt;span style=&quot;font-size: 12px; text-wrap-mode: wrap;&quot;&gt;&quot;text_file&quot;&lt;/span&gt;" style="html=1;verticalAlign=bottom;startArrow=oval;startFill=1;endArrow=block;startSize=8;curved=0;rounded=0;" parent="1" edge="1">
          <mxGeometry x="0.3333" y="-50" width="60" relative="1" as="geometry">
            <mxPoint x="2220" y="200" as="sourcePoint" />
            <mxPoint x="2220" y="230" as="targetPoint" />
            <mxPoint as="offset" />
          </mxGeometry>
        </mxCell>
        <mxCell id="aXQiDmJrJk_II0E27TAM-97" value="15" style="ellipse;whiteSpace=wrap;html=1;" parent="1" vertex="1">
          <mxGeometry x="1940" y="320" width="20" height="20" as="geometry" />
        </mxCell>
        <mxCell id="aXQiDmJrJk_II0E27TAM-99" value="" style="endArrow=none;html=1;rounded=0;exitX=0.5;exitY=0;exitDx=0;exitDy=0;entryX=0.5;entryY=1;entryDx=0;entryDy=0;" parent="1" source="aXQiDmJrJk_II0E27TAM-97" target="aXQiDmJrJk_II0E27TAM-83" edge="1">
          <mxGeometry width="50" height="50" relative="1" as="geometry">
            <mxPoint x="2010" y="240" as="sourcePoint" />
            <mxPoint x="2060" y="190" as="targetPoint" />
          </mxGeometry>
        </mxCell>
        <mxCell id="aXQiDmJrJk_II0E27TAM-100" value="15" style="ellipse;whiteSpace=wrap;html=1;" parent="1" vertex="1">
          <mxGeometry x="1940" y="410" width="20" height="20" as="geometry" />
        </mxCell>
        <mxCell id="aXQiDmJrJk_II0E27TAM-101" value="user_info()" style="whiteSpace=wrap;html=1;" parent="1" vertex="1">
          <mxGeometry x="1690" y="540" width="120" height="60" as="geometry" />
        </mxCell>
        <mxCell id="aXQiDmJrJk_II0E27TAM-102" value="user_review()" style="whiteSpace=wrap;html=1;" parent="1" vertex="1">
          <mxGeometry x="1870" y="620" width="120" height="60" as="geometry" />
        </mxCell>
        <mxCell id="aXQiDmJrJk_II0E27TAM-103" value="" style="endArrow=none;html=1;rounded=0;exitX=0.5;exitY=0;exitDx=0;exitDy=0;entryX=0.5;entryY=1;entryDx=0;entryDy=0;" parent="1" source="aXQiDmJrJk_II0E27TAM-101" target="aXQiDmJrJk_II0E27TAM-100" edge="1">
          <mxGeometry width="50" height="50" relative="1" as="geometry">
            <mxPoint x="2010" y="420" as="sourcePoint" />
            <mxPoint x="2060" y="370" as="targetPoint" />
            <Array as="points">
              <mxPoint x="1750" y="450" />
              <mxPoint x="1950" y="450" />
            </Array>
          </mxGeometry>
        </mxCell>
        <mxCell id="aXQiDmJrJk_II0E27TAM-104" value="" style="endArrow=none;html=1;rounded=0;entryX=0.5;entryY=1;entryDx=0;entryDy=0;exitX=0.5;exitY=0;exitDx=0;exitDy=0;" parent="1" source="aXQiDmJrJk_II0E27TAM-102" target="aXQiDmJrJk_II0E27TAM-100" edge="1">
          <mxGeometry width="50" height="50" relative="1" as="geometry">
            <mxPoint x="2010" y="420" as="sourcePoint" />
            <mxPoint x="2060" y="370" as="targetPoint" />
            <Array as="points">
              <mxPoint x="1930" y="450" />
              <mxPoint x="1950" y="450" />
            </Array>
          </mxGeometry>
        </mxCell>
        <mxCell id="aXQiDmJrJk_II0E27TAM-109" value="" style="endArrow=none;html=1;rounded=0;entryX=0.5;entryY=1;entryDx=0;entryDy=0;exitX=0.5;exitY=0;exitDx=0;exitDy=0;" parent="1" source="aXQiDmJrJk_II0E27TAM-110" target="aXQiDmJrJk_II0E27TAM-100" edge="1">
          <mxGeometry width="50" height="50" relative="1" as="geometry">
            <mxPoint x="2070" y="420" as="sourcePoint" />
            <mxPoint x="1960" y="370" as="targetPoint" />
            <Array as="points">
              <mxPoint x="2020" y="480" />
              <mxPoint x="2080" y="480" />
              <mxPoint x="2080" y="450" />
              <mxPoint x="1950" y="450" />
            </Array>
          </mxGeometry>
        </mxCell>
        <mxCell id="aXQiDmJrJk_II0E27TAM-110" value="clear_screen()" style="whiteSpace=wrap;html=1;" parent="1" vertex="1">
          <mxGeometry x="1960" y="510" width="120" height="60" as="geometry" />
        </mxCell>
        <mxCell id="aXQiDmJrJk_II0E27TAM-111" value="temp_review()" style="whiteSpace=wrap;html=1;" parent="1" vertex="1">
          <mxGeometry x="2092" y="510" width="120" height="60" as="geometry" />
        </mxCell>
        <mxCell id="aXQiDmJrJk_II0E27TAM-114" value="" style="endArrow=none;html=1;rounded=0;exitX=0.5;exitY=0;exitDx=0;exitDy=0;" parent="1" source="aXQiDmJrJk_II0E27TAM-111" edge="1">
          <mxGeometry width="50" height="50" relative="1" as="geometry">
            <mxPoint x="2152" y="510" as="sourcePoint" />
            <mxPoint x="2080" y="450" as="targetPoint" />
            <Array as="points">
              <mxPoint x="2152" y="480" />
              <mxPoint x="2080" y="480" />
              <mxPoint x="2080" y="450" />
              <mxPoint x="1950" y="450" />
            </Array>
          </mxGeometry>
        </mxCell>
        <mxCell id="aXQiDmJrJk_II0E27TAM-107" value="" style="verticalLabelPosition=bottom;html=1;verticalAlign=top;strokeWidth=2;shape=mxgraph.lean_mapping.physical_pull;pointerEvents=1;" parent="1" vertex="1">
          <mxGeometry x="2068" y="460" width="20" height="10" as="geometry" />
        </mxCell>
        <mxCell id="aXQiDmJrJk_II0E27TAM-115" value="" style="endArrow=none;html=1;rounded=0;entryX=0.5;entryY=1;entryDx=0;entryDy=0;exitX=0.5;exitY=0;exitDx=0;exitDy=0;" parent="1" source="aXQiDmJrJk_II0E27TAM-116" target="aXQiDmJrJk_II0E27TAM-100" edge="1">
          <mxGeometry width="50" height="50" relative="1" as="geometry">
            <mxPoint x="2260" y="470" as="sourcePoint" />
            <mxPoint x="2160" y="370" as="targetPoint" />
            <Array as="points">
              <mxPoint x="1835" y="690" />
              <mxPoint x="2230" y="690" />
              <mxPoint x="2230" y="480" />
              <mxPoint x="2080" y="480" />
              <mxPoint x="2080" y="450" />
              <mxPoint x="1950" y="450" />
            </Array>
          </mxGeometry>
        </mxCell>
        <mxCell id="aXQiDmJrJk_II0E27TAM-116" value="quit()" style="whiteSpace=wrap;html=1;" parent="1" vertex="1">
          <mxGeometry x="1800" y="780" width="70" height="20" as="geometry" />
        </mxCell>
        <mxCell id="aXQiDmJrJk_II0E27TAM-117" value="confirmation()" style="whiteSpace=wrap;html=1;" parent="1" vertex="1">
          <mxGeometry x="1930" y="860" width="90" height="20" as="geometry" />
        </mxCell>
        <mxCell id="aXQiDmJrJk_II0E27TAM-118" value="modify_review()" style="whiteSpace=wrap;html=1;" parent="1" vertex="1">
          <mxGeometry x="2050" y="860" width="100" height="30" as="geometry" />
        </mxCell>
        <mxCell id="aXQiDmJrJk_II0E27TAM-119" value="delete_review()" style="whiteSpace=wrap;html=1;" parent="1" vertex="1">
          <mxGeometry x="2180" y="860" width="90" height="20" as="geometry" />
        </mxCell>
        <mxCell id="aXQiDmJrJk_II0E27TAM-120" value="handle_invalid_option()" style="whiteSpace=wrap;html=1;" parent="1" vertex="1">
          <mxGeometry x="2270" y="810" width="130" height="30" as="geometry" />
        </mxCell>
        <mxCell id="aXQiDmJrJk_II0E27TAM-121" value="" style="endArrow=none;html=1;rounded=0;entryX=0.5;entryY=1;entryDx=0;entryDy=0;exitX=0.5;exitY=0;exitDx=0;exitDy=0;" parent="1" source="aXQiDmJrJk_II0E27TAM-117" target="aXQiDmJrJk_II0E27TAM-100" edge="1">
          <mxGeometry width="50" height="50" relative="1" as="geometry">
            <mxPoint x="2090" y="620" as="sourcePoint" />
            <mxPoint x="2140" y="570" as="targetPoint" />
            <Array as="points">
              <mxPoint x="1980" y="690" />
              <mxPoint x="2230" y="690" />
              <mxPoint x="2230" y="480" />
              <mxPoint x="2080" y="480" />
              <mxPoint x="2080" y="450" />
              <mxPoint x="1950" y="450" />
            </Array>
          </mxGeometry>
        </mxCell>
        <mxCell id="aXQiDmJrJk_II0E27TAM-122" value="" style="endArrow=none;html=1;rounded=0;entryX=0.5;entryY=1;entryDx=0;entryDy=0;exitX=0.5;exitY=0;exitDx=0;exitDy=0;" parent="1" source="aXQiDmJrJk_II0E27TAM-118" target="aXQiDmJrJk_II0E27TAM-100" edge="1">
          <mxGeometry width="50" height="50" relative="1" as="geometry">
            <mxPoint x="2190" y="620" as="sourcePoint" />
            <mxPoint x="2240" y="570" as="targetPoint" />
            <Array as="points">
              <mxPoint x="2100" y="690" />
              <mxPoint x="2230" y="690" />
              <mxPoint x="2230" y="480" />
              <mxPoint x="2080" y="480" />
              <mxPoint x="2080" y="450" />
              <mxPoint x="1950" y="450" />
            </Array>
          </mxGeometry>
        </mxCell>
        <mxCell id="aXQiDmJrJk_II0E27TAM-123" value="" style="endArrow=none;html=1;rounded=0;entryX=0.5;entryY=1;entryDx=0;entryDy=0;exitX=0.5;exitY=0;exitDx=0;exitDy=0;" parent="1" source="aXQiDmJrJk_II0E27TAM-119" target="aXQiDmJrJk_II0E27TAM-100" edge="1">
          <mxGeometry width="50" height="50" relative="1" as="geometry">
            <mxPoint x="2190" y="620" as="sourcePoint" />
            <mxPoint x="2240" y="570" as="targetPoint" />
            <Array as="points">
              <mxPoint x="2220" y="690" />
              <mxPoint x="2230" y="690" />
              <mxPoint x="2230" y="480" />
              <mxPoint x="2080" y="480" />
              <mxPoint x="2080" y="450" />
              <mxPoint x="1950" y="450" />
            </Array>
          </mxGeometry>
        </mxCell>
        <mxCell id="aXQiDmJrJk_II0E27TAM-124" value="" style="endArrow=none;html=1;rounded=0;entryX=0.5;entryY=1;entryDx=0;entryDy=0;exitX=0.5;exitY=0;exitDx=0;exitDy=0;" parent="1" source="aXQiDmJrJk_II0E27TAM-120" target="aXQiDmJrJk_II0E27TAM-100" edge="1">
          <mxGeometry width="50" height="50" relative="1" as="geometry">
            <mxPoint x="2190" y="620" as="sourcePoint" />
            <mxPoint x="2240" y="570" as="targetPoint" />
            <Array as="points">
              <mxPoint x="2330" y="690" />
              <mxPoint x="2230" y="690" />
              <mxPoint x="2230" y="480" />
              <mxPoint x="2080" y="480" />
              <mxPoint x="2080" y="450" />
              <mxPoint x="1950" y="450" />
            </Array>
          </mxGeometry>
        </mxCell>
        <mxCell id="aXQiDmJrJk_II0E27TAM-125" value="&lt;span style=&quot;font-size: 12px; text-wrap-mode: wrap;&quot;&gt;text_file, name,&amp;nbsp;&lt;/span&gt;&lt;span style=&quot;font-size: 12px; text-wrap-mode: wrap; background-color: light-dark(#ffffff, var(--ge-dark-color, #121212)); color: light-dark(rgb(0, 0, 0), rgb(255, 255, 255));&quot;&gt;city,&amp;nbsp;&lt;/span&gt;&lt;div&gt;&lt;span style=&quot;font-size: 12px; text-wrap-mode: wrap; background-color: light-dark(#ffffff, var(--ge-dark-color, #121212)); color: light-dark(rgb(0, 0, 0), rgb(255, 255, 255));&quot;&gt;state, date,&amp;nbsp;&lt;/span&gt;&lt;div&gt;&lt;span style=&quot;font-size: 12px; text-wrap-mode: wrap;&quot;&gt;rate, main_reason,&amp;nbsp;&lt;/span&gt;&lt;/div&gt;&lt;div&gt;&lt;span style=&quot;font-size: 12px; text-wrap-mode: wrap;&quot;&gt;comments&lt;/span&gt;&lt;/div&gt;&lt;/div&gt;" style="html=1;verticalAlign=bottom;startArrow=oval;startFill=1;endArrow=block;startSize=8;curved=0;rounded=0;" parent="1" edge="1">
          <mxGeometry x="0.3333" y="-60" width="60" relative="1" as="geometry">
            <mxPoint x="1990" y="830" as="sourcePoint" />
            <mxPoint x="1990" y="860" as="targetPoint" />
            <mxPoint as="offset" />
          </mxGeometry>
        </mxCell>
        <mxCell id="aXQiDmJrJk_II0E27TAM-126" value="&lt;span style=&quot;font-size: 12px; text-wrap-mode: wrap;&quot;&gt;text_file, name, city, state, date, rate, main_reason, comments&lt;/span&gt;" style="html=1;verticalAlign=bottom;startArrow=oval;startFill=1;endArrow=block;startSize=8;curved=0;rounded=0;" parent="1" edge="1">
          <mxGeometry x="0.3333" y="-60" width="60" relative="1" as="geometry">
            <mxPoint x="2120" y="830" as="sourcePoint" />
            <mxPoint x="2120" y="860" as="targetPoint" />
            <mxPoint as="offset" />
          </mxGeometry>
        </mxCell>
        <mxCell id="aXQiDmJrJk_II0E27TAM-127" value="&lt;span style=&quot;font-size: 12px; text-wrap-mode: wrap;&quot;&gt;text_file, name, city, state, date, rate, main_reason, comments&lt;/span&gt;" style="html=1;verticalAlign=bottom;startArrow=oval;startFill=1;endArrow=block;startSize=8;curved=0;rounded=0;" parent="1" edge="1">
          <mxGeometry x="0.3333" y="-60" width="60" relative="1" as="geometry">
            <mxPoint x="2240" y="830" as="sourcePoint" />
            <mxPoint x="2240" y="860" as="targetPoint" />
            <mxPoint as="offset" />
          </mxGeometry>
        </mxCell>
        <mxCell id="aXQiDmJrJk_II0E27TAM-128" value="(+)" style="text;html=1;align=center;verticalAlign=middle;resizable=0;points=[];autosize=1;strokeColor=none;fillColor=none;" parent="1" vertex="1">
          <mxGeometry x="1880" y="710" width="40" height="30" as="geometry" />
        </mxCell>
        <mxCell id="aXQiDmJrJk_II0E27TAM-129" value="(+)" style="text;html=1;align=center;verticalAlign=middle;resizable=0;points=[];autosize=1;strokeColor=none;fillColor=none;" parent="1" vertex="1">
          <mxGeometry x="2140" y="710" width="40" height="30" as="geometry" />
        </mxCell>
        <mxCell id="aXQiDmJrJk_II0E27TAM-130" value="(+)" style="text;html=1;align=center;verticalAlign=middle;resizable=0;points=[];autosize=1;strokeColor=none;fillColor=none;" parent="1" vertex="1">
          <mxGeometry x="2020" y="710" width="40" height="30" as="geometry" />
        </mxCell>
        <mxCell id="aXQiDmJrJk_II0E27TAM-131" value="(+)" style="text;html=1;align=center;verticalAlign=middle;resizable=0;points=[];autosize=1;strokeColor=none;fillColor=none;" parent="1" vertex="1">
          <mxGeometry x="2280" y="710" width="40" height="30" as="geometry" />
        </mxCell>
        <mxCell id="aXQiDmJrJk_II0E27TAM-134" value="17" style="ellipse;whiteSpace=wrap;html=1;" parent="1" vertex="1">
          <mxGeometry x="2090" y="920" width="20" height="20" as="geometry" />
        </mxCell>
        <mxCell id="aXQiDmJrJk_II0E27TAM-136" value="" style="endArrow=none;html=1;rounded=0;exitX=0.5;exitY=1;exitDx=0;exitDy=0;entryX=0.5;entryY=0;entryDx=0;entryDy=0;" parent="1" source="aXQiDmJrJk_II0E27TAM-118" target="aXQiDmJrJk_II0E27TAM-134" edge="1">
          <mxGeometry width="50" height="50" relative="1" as="geometry">
            <mxPoint x="2120" y="780" as="sourcePoint" />
            <mxPoint x="2170" y="730" as="targetPoint" />
          </mxGeometry>
        </mxCell>
        <mxCell id="aXQiDmJrJk_II0E27TAM-139" value="16" style="ellipse;whiteSpace=wrap;html=1;" parent="1" vertex="1">
          <mxGeometry x="2850" y="60" width="20" height="20" as="geometry" />
        </mxCell>
        <mxCell id="aXQiDmJrJk_II0E27TAM-141" value="clear_screen()" style="whiteSpace=wrap;html=1;" parent="1" vertex="1">
          <mxGeometry x="2740" y="140" width="80" height="20" as="geometry" />
        </mxCell>
        <mxCell id="aXQiDmJrJk_II0E27TAM-142" value="display_review()" style="whiteSpace=wrap;html=1;" parent="1" vertex="1">
          <mxGeometry x="2910" y="145" width="90" height="15" as="geometry" />
        </mxCell>
        <mxCell id="aXQiDmJrJk_II0E27TAM-143" value="" style="endArrow=none;html=1;rounded=0;exitX=0.5;exitY=0;exitDx=0;exitDy=0;entryX=0.5;entryY=1;entryDx=0;entryDy=0;" parent="1" source="aXQiDmJrJk_II0E27TAM-142" target="aXQiDmJrJk_II0E27TAM-139" edge="1">
          <mxGeometry width="50" height="50" relative="1" as="geometry">
            <mxPoint x="2940" y="160" as="sourcePoint" />
            <mxPoint x="2920" y="80" as="targetPoint" />
            <Array as="points">
              <mxPoint x="2955" y="90" />
              <mxPoint x="2860" y="90" />
            </Array>
          </mxGeometry>
        </mxCell>
        <mxCell id="aXQiDmJrJk_II0E27TAM-144" value="" style="endArrow=none;html=1;rounded=0;exitX=0.5;exitY=0;exitDx=0;exitDy=0;entryX=0.5;entryY=1;entryDx=0;entryDy=0;" parent="1" source="aXQiDmJrJk_II0E27TAM-141" target="aXQiDmJrJk_II0E27TAM-139" edge="1">
          <mxGeometry width="50" height="50" relative="1" as="geometry">
            <mxPoint x="2940" y="160" as="sourcePoint" />
            <mxPoint x="2920" y="80" as="targetPoint" />
            <Array as="points">
              <mxPoint x="2780" y="90" />
              <mxPoint x="2860" y="90" />
            </Array>
          </mxGeometry>
        </mxCell>
        <mxCell id="aXQiDmJrJk_II0E27TAM-145" value="&lt;span style=&quot;font-size: 12px; text-wrap-mode: wrap;&quot;&gt;text_file&lt;/span&gt;" style="html=1;verticalAlign=bottom;startArrow=oval;startFill=1;endArrow=block;startSize=8;curved=0;rounded=0;" parent="1" edge="1">
          <mxGeometry x="1" y="-40" width="60" relative="1" as="geometry">
            <mxPoint x="2970" y="110" as="sourcePoint" />
            <mxPoint x="2970" y="140" as="targetPoint" />
            <mxPoint as="offset" />
          </mxGeometry>
        </mxCell>
        <mxCell id="aXQiDmJrJk_II0E27TAM-147" value="confirmation()" style="text;html=1;align=center;verticalAlign=middle;resizable=0;points=[];autosize=1;strokeColor=none;fillColor=none;" parent="1" vertex="1">
          <mxGeometry x="2610" y="28" width="100" height="30" as="geometry" />
        </mxCell>
        <mxCell id="aXQiDmJrJk_II0E27TAM-148" value="track()" style="text;html=1;align=center;verticalAlign=middle;resizable=0;points=[];autosize=1;strokeColor=none;fillColor=none;" parent="1" vertex="1">
          <mxGeometry x="1690" y="18" width="60" height="30" as="geometry" />
        </mxCell>
        <mxCell id="aXQiDmJrJk_II0E27TAM-150" value="give_comment()" style="text;html=1;align=center;verticalAlign=middle;resizable=0;points=[];autosize=1;strokeColor=none;fillColor=none;" parent="1" vertex="1">
          <mxGeometry x="1665" y="388" width="110" height="30" as="geometry" />
        </mxCell>
        <mxCell id="aXQiDmJrJk_II0E27TAM-151" value="modify_review()" style="text;html=1;align=center;verticalAlign=middle;resizable=0;points=[];autosize=1;strokeColor=none;fillColor=none;" parent="1" vertex="1">
          <mxGeometry x="2540" y="290" width="110" height="30" as="geometry" />
        </mxCell>
        <mxCell id="aXQiDmJrJk_II0E27TAM-152" value="17" style="ellipse;whiteSpace=wrap;html=1;" parent="1" vertex="1">
          <mxGeometry x="2815" y="332" width="20" height="20" as="geometry" />
        </mxCell>
        <mxCell id="aXQiDmJrJk_II0E27TAM-154" value="clear_screen()" style="whiteSpace=wrap;html=1;" parent="1" vertex="1">
          <mxGeometry x="2510" y="502" width="120" height="60" as="geometry" />
        </mxCell>
        <mxCell id="aXQiDmJrJk_II0E27TAM-155" value="temp_review()" style="whiteSpace=wrap;html=1;" parent="1" vertex="1">
          <mxGeometry x="2675" y="502" width="120" height="60" as="geometry" />
        </mxCell>
        <mxCell id="aXQiDmJrJk_II0E27TAM-156" value="user_info()" style="whiteSpace=wrap;html=1;" parent="1" vertex="1">
          <mxGeometry x="2835" y="502" width="120" height="60" as="geometry" />
        </mxCell>
        <mxCell id="aXQiDmJrJk_II0E27TAM-157" value="user_review()" style="whiteSpace=wrap;html=1;" parent="1" vertex="1">
          <mxGeometry x="2995" y="502" width="120" height="60" as="geometry" />
        </mxCell>
        <mxCell id="aXQiDmJrJk_II0E27TAM-158" value="confirmation()" style="whiteSpace=wrap;html=1;" parent="1" vertex="1">
          <mxGeometry x="3175" y="502" width="120" height="60" as="geometry" />
        </mxCell>
        <mxCell id="aXQiDmJrJk_II0E27TAM-160" value="" style="endArrow=none;html=1;rounded=0;entryX=0.5;entryY=1;entryDx=0;entryDy=0;exitX=0.5;exitY=0;exitDx=0;exitDy=0;" parent="1" source="aXQiDmJrJk_II0E27TAM-154" target="aXQiDmJrJk_II0E27TAM-152" edge="1">
          <mxGeometry width="50" height="50" relative="1" as="geometry">
            <mxPoint x="2885" y="402" as="sourcePoint" />
            <mxPoint x="2875" y="362" as="targetPoint" />
            <Array as="points">
              <mxPoint x="2570" y="382" />
              <mxPoint x="2825" y="382" />
            </Array>
          </mxGeometry>
        </mxCell>
        <mxCell id="aXQiDmJrJk_II0E27TAM-161" value="" style="endArrow=none;html=1;rounded=0;entryX=0.5;entryY=1;entryDx=0;entryDy=0;exitX=0.5;exitY=0;exitDx=0;exitDy=0;" parent="1" source="aXQiDmJrJk_II0E27TAM-155" target="aXQiDmJrJk_II0E27TAM-152" edge="1">
          <mxGeometry width="50" height="50" relative="1" as="geometry">
            <mxPoint x="2885" y="402" as="sourcePoint" />
            <mxPoint x="2935" y="352" as="targetPoint" />
            <Array as="points">
              <mxPoint x="2735" y="382" />
              <mxPoint x="2825" y="382" />
            </Array>
          </mxGeometry>
        </mxCell>
        <mxCell id="aXQiDmJrJk_II0E27TAM-162" value="" style="endArrow=none;html=1;rounded=0;entryX=0.5;entryY=1;entryDx=0;entryDy=0;exitX=0.5;exitY=0;exitDx=0;exitDy=0;" parent="1" source="aXQiDmJrJk_II0E27TAM-156" target="aXQiDmJrJk_II0E27TAM-152" edge="1">
          <mxGeometry width="50" height="50" relative="1" as="geometry">
            <mxPoint x="2885" y="402" as="sourcePoint" />
            <mxPoint x="2935" y="352" as="targetPoint" />
            <Array as="points">
              <mxPoint x="2895" y="382" />
              <mxPoint x="2825" y="382" />
            </Array>
          </mxGeometry>
        </mxCell>
        <mxCell id="aXQiDmJrJk_II0E27TAM-163" value="" style="endArrow=none;html=1;rounded=0;entryX=0.5;entryY=1;entryDx=0;entryDy=0;exitX=0.5;exitY=0;exitDx=0;exitDy=0;" parent="1" source="aXQiDmJrJk_II0E27TAM-157" target="aXQiDmJrJk_II0E27TAM-152" edge="1">
          <mxGeometry width="50" height="50" relative="1" as="geometry">
            <mxPoint x="2885" y="402" as="sourcePoint" />
            <mxPoint x="2935" y="352" as="targetPoint" />
            <Array as="points">
              <mxPoint x="3055" y="382" />
              <mxPoint x="2825" y="382" />
            </Array>
          </mxGeometry>
        </mxCell>
        <mxCell id="aXQiDmJrJk_II0E27TAM-164" value="" style="endArrow=none;html=1;rounded=0;entryX=0.5;entryY=1;entryDx=0;entryDy=0;exitX=0.5;exitY=0;exitDx=0;exitDy=0;" parent="1" source="aXQiDmJrJk_II0E27TAM-158" target="aXQiDmJrJk_II0E27TAM-152" edge="1">
          <mxGeometry width="50" height="50" relative="1" as="geometry">
            <mxPoint x="2885" y="402" as="sourcePoint" />
            <mxPoint x="2935" y="352" as="targetPoint" />
            <Array as="points">
              <mxPoint x="3235" y="382" />
              <mxPoint x="2825" y="382" />
            </Array>
          </mxGeometry>
        </mxCell>
        <mxCell id="aXQiDmJrJk_II0E27TAM-165" value="&lt;span style=&quot;font-size: 12px; text-wrap-mode: wrap;&quot;&gt;name, city, state, date&lt;/span&gt;" style="html=1;verticalAlign=bottom;startArrow=oval;startFill=1;endArrow=block;startSize=8;curved=0;rounded=0;" parent="1" edge="1">
          <mxGeometry x="0.3333" y="-30" width="60" relative="1" as="geometry">
            <mxPoint x="1760" y="510" as="sourcePoint" />
            <mxPoint x="1760" y="540" as="targetPoint" />
            <mxPoint as="offset" />
          </mxGeometry>
        </mxCell>
        <mxCell id="aXQiDmJrJk_II0E27TAM-166" value="&lt;span style=&quot;font-size: 12px; text-wrap-mode: wrap;&quot;&gt;name, city, state, date, rate, main_reason, comments&lt;/span&gt;" style="html=1;verticalAlign=bottom;startArrow=oval;startFill=1;endArrow=block;startSize=8;curved=0;rounded=0;" parent="1" edge="1">
          <mxGeometry x="1" y="-50" width="60" relative="1" as="geometry">
            <mxPoint x="1940" y="575" as="sourcePoint" />
            <mxPoint x="1940" y="605" as="targetPoint" />
            <mxPoint y="-1" as="offset" />
          </mxGeometry>
        </mxCell>
        <mxCell id="aXQiDmJrJk_II0E27TAM-167" value="&lt;span style=&quot;font-size: 12px; text-wrap-mode: wrap;&quot;&gt;name, city, state, date&lt;/span&gt;" style="html=1;verticalAlign=bottom;startArrow=oval;startFill=1;endArrow=block;startSize=8;curved=0;rounded=0;" parent="1" edge="1">
          <mxGeometry x="0.3333" y="-30" width="60" relative="1" as="geometry">
            <mxPoint x="2905" y="472" as="sourcePoint" />
            <mxPoint x="2905" y="502" as="targetPoint" />
            <mxPoint as="offset" />
          </mxGeometry>
        </mxCell>
        <mxCell id="aXQiDmJrJk_II0E27TAM-168" value="&lt;span style=&quot;font-size: 12px; text-wrap-mode: wrap;&quot;&gt;name, city, state, date, rate, main_reason, comments&lt;/span&gt;" style="html=1;verticalAlign=bottom;startArrow=oval;startFill=1;endArrow=block;startSize=8;curved=0;rounded=0;" parent="1" edge="1">
          <mxGeometry x="1" y="-50" width="60" relative="1" as="geometry">
            <mxPoint x="3065" y="462" as="sourcePoint" />
            <mxPoint x="3065" y="492" as="targetPoint" />
            <mxPoint y="-1" as="offset" />
          </mxGeometry>
        </mxCell>
        <mxCell id="aXQiDmJrJk_II0E27TAM-169" value="&lt;span style=&quot;font-size: 12px; text-wrap-mode: wrap;&quot;&gt;text_file, name,&amp;nbsp;&lt;/span&gt;&lt;span style=&quot;font-size: 12px; text-wrap-mode: wrap; background-color: light-dark(#ffffff, var(--ge-dark-color, #121212)); color: light-dark(rgb(0, 0, 0), rgb(255, 255, 255));&quot;&gt;city,&amp;nbsp;&lt;/span&gt;&lt;div&gt;&lt;span style=&quot;font-size: 12px; text-wrap-mode: wrap; background-color: light-dark(#ffffff, var(--ge-dark-color, #121212)); color: light-dark(rgb(0, 0, 0), rgb(255, 255, 255));&quot;&gt;state, date,&amp;nbsp;&lt;/span&gt;&lt;div&gt;&lt;span style=&quot;font-size: 12px; text-wrap-mode: wrap;&quot;&gt;rate, main_reason,&amp;nbsp;&lt;/span&gt;&lt;/div&gt;&lt;div&gt;&lt;span style=&quot;font-size: 12px; text-wrap-mode: wrap;&quot;&gt;comments&lt;/span&gt;&lt;/div&gt;&lt;/div&gt;" style="html=1;verticalAlign=bottom;startArrow=oval;startFill=1;endArrow=block;startSize=8;curved=0;rounded=0;" parent="1" edge="1">
          <mxGeometry x="0.3333" y="-60" width="60" relative="1" as="geometry">
            <mxPoint x="3245" y="472" as="sourcePoint" />
            <mxPoint x="3245" y="502" as="targetPoint" />
            <mxPoint as="offset" />
          </mxGeometry>
        </mxCell>
        <mxCell id="aXQiDmJrJk_II0E27TAM-170" value="restaurant_r()" style="text;html=1;align=center;verticalAlign=middle;resizable=0;points=[];autosize=1;strokeColor=none;fillColor=none;" parent="1" vertex="1">
          <mxGeometry x="830" y="18" width="100" height="30" as="geometry" />
        </mxCell>
        <mxCell id="aXQiDmJrJk_II0E27TAM-171" value="7" style="ellipse;whiteSpace=wrap;html=1;" parent="1" vertex="1">
          <mxGeometry x="1140" y="1292" width="20" height="20" as="geometry" />
        </mxCell>
        <mxCell id="aXQiDmJrJk_II0E27TAM-172" value="clearscreen()" style="whiteSpace=wrap;html=1;" parent="1" vertex="1">
          <mxGeometry x="830" y="1402" width="120" height="60" as="geometry" />
        </mxCell>
        <mxCell id="aXQiDmJrJk_II0E27TAM-173" value="" style="verticalLabelPosition=bottom;html=1;verticalAlign=top;strokeWidth=2;shape=mxgraph.lean_mapping.physical_pull;pointerEvents=1;" parent="1" vertex="1">
          <mxGeometry x="1140" y="1332" width="20" height="10" as="geometry" />
        </mxCell>
        <mxCell id="aXQiDmJrJk_II0E27TAM-174" value="" style="endArrow=none;html=1;rounded=0;entryX=0.5;entryY=1;entryDx=0;entryDy=0;exitX=0.5;exitY=0;exitDx=0;exitDy=0;" parent="1" source="aXQiDmJrJk_II0E27TAM-172" target="aXQiDmJrJk_II0E27TAM-171" edge="1">
          <mxGeometry width="50" height="50" relative="1" as="geometry">
            <mxPoint x="1100" y="1522" as="sourcePoint" />
            <mxPoint x="1150" y="1472" as="targetPoint" />
            <Array as="points">
              <mxPoint x="890" y="1352" />
              <mxPoint x="1150" y="1352" />
            </Array>
          </mxGeometry>
        </mxCell>
        <mxCell id="aXQiDmJrJk_II0E27TAM-175" value="track()" style="whiteSpace=wrap;html=1;" parent="1" vertex="1">
          <mxGeometry x="900" y="1592" width="120" height="60" as="geometry" />
        </mxCell>
        <mxCell id="aXQiDmJrJk_II0E27TAM-176" value="track()" style="whiteSpace=wrap;html=1;" parent="1" vertex="1">
          <mxGeometry x="980" y="1752" width="120" height="60" as="geometry" />
        </mxCell>
        <mxCell id="aXQiDmJrJk_II0E27TAM-177" value="track()" style="whiteSpace=wrap;html=1;" parent="1" vertex="1">
          <mxGeometry x="1130" y="1752" width="120" height="60" as="geometry" />
        </mxCell>
        <mxCell id="aXQiDmJrJk_II0E27TAM-178" value="track()" style="whiteSpace=wrap;html=1;" parent="1" vertex="1">
          <mxGeometry x="1050" y="1592" width="120" height="60" as="geometry" />
        </mxCell>
        <mxCell id="aXQiDmJrJk_II0E27TAM-179" value="track()" style="whiteSpace=wrap;html=1;" parent="1" vertex="1">
          <mxGeometry x="1370" y="1582" width="120" height="60" as="geometry" />
        </mxCell>
        <mxCell id="aXQiDmJrJk_II0E27TAM-181" value="track()" style="whiteSpace=wrap;html=1;" parent="1" vertex="1">
          <mxGeometry x="1290" y="1752" width="120" height="60" as="geometry" />
        </mxCell>
        <mxCell id="aXQiDmJrJk_II0E27TAM-182" value="track()" style="whiteSpace=wrap;html=1;" parent="1" vertex="1">
          <mxGeometry x="1200" y="1592" width="120" height="60" as="geometry" />
        </mxCell>
        <mxCell id="aXQiDmJrJk_II0E27TAM-183" value="&lt;span style=&quot;font-size: 12px; text-wrap-mode: wrap; background-color: rgb(236, 236, 236);&quot;&gt;&quot;bingxue_review.txt&quot;&lt;/span&gt;" style="html=1;verticalAlign=bottom;startArrow=oval;startFill=1;endArrow=block;startSize=8;curved=0;rounded=0;" parent="1" edge="1">
          <mxGeometry x="1" y="-70" width="60" relative="1" as="geometry">
            <mxPoint x="970" y="1552" as="sourcePoint" />
            <mxPoint x="970" y="1582" as="targetPoint" />
            <mxPoint as="offset" />
          </mxGeometry>
        </mxCell>
        <mxCell id="aXQiDmJrJk_II0E27TAM-184" value="&lt;span style=&quot;font-size: 12px; text-wrap-mode: wrap; background-color: rgb(236, 236, 236);&quot;&gt;&quot;blackboard_review.txt&quot;&lt;/span&gt;" style="html=1;verticalAlign=bottom;startArrow=oval;startFill=1;endArrow=block;startSize=8;curved=0;rounded=0;" parent="1" edge="1">
          <mxGeometry x="1" y="-81" width="60" relative="1" as="geometry">
            <mxPoint x="1051" y="1712" as="sourcePoint" />
            <mxPoint x="1051" y="1742" as="targetPoint" />
            <mxPoint as="offset" />
          </mxGeometry>
        </mxCell>
        <mxCell id="aXQiDmJrJk_II0E27TAM-185" value="&lt;span style=&quot;font-size: 12px; text-wrap-mode: wrap;&quot;&gt;&quot;mixue_&lt;/span&gt;&lt;div&gt;&lt;span style=&quot;font-size: 12px; text-wrap-mode: wrap;&quot;&gt;review.txt&quot;&lt;/span&gt;&lt;/div&gt;" style="html=1;verticalAlign=bottom;startArrow=oval;startFill=1;endArrow=block;startSize=8;curved=0;rounded=0;" parent="1" edge="1">
          <mxGeometry x="1" y="-50" width="60" relative="1" as="geometry">
            <mxPoint x="1120" y="1532" as="sourcePoint" />
            <mxPoint x="1120" y="1562" as="targetPoint" />
            <mxPoint as="offset" />
          </mxGeometry>
        </mxCell>
        <mxCell id="aXQiDmJrJk_II0E27TAM-186" value="&lt;span style=&quot;font-size: 12px; text-wrap-mode: wrap;&quot;&gt;&quot;secret_review.txt&quot;&lt;/span&gt;" style="html=1;verticalAlign=bottom;startArrow=oval;startFill=1;endArrow=block;startSize=8;curved=0;rounded=0;" parent="1" edge="1">
          <mxGeometry x="0.2" y="-70" width="60" relative="1" as="geometry">
            <mxPoint x="1200" y="1722" as="sourcePoint" />
            <mxPoint x="1200" y="1752" as="targetPoint" />
            <mxPoint as="offset" />
          </mxGeometry>
        </mxCell>
        <mxCell id="aXQiDmJrJk_II0E27TAM-187" value="&lt;span style=&quot;font-size: 12px; text-wrap-mode: wrap;&quot;&gt;&quot;snowy_&lt;/span&gt;&lt;div&gt;&lt;span style=&quot;font-size: 12px; text-wrap-mode: wrap;&quot;&gt;review.txt&quot;&lt;/span&gt;&lt;/div&gt;" style="html=1;verticalAlign=bottom;startArrow=oval;startFill=1;endArrow=block;startSize=8;curved=0;rounded=0;" parent="1" edge="1">
          <mxGeometry x="0.3333" y="-50" width="60" relative="1" as="geometry">
            <mxPoint x="1270" y="1542" as="sourcePoint" />
            <mxPoint x="1270" y="1572" as="targetPoint" />
            <mxPoint as="offset" />
          </mxGeometry>
        </mxCell>
        <mxCell id="aXQiDmJrJk_II0E27TAM-188" value="&lt;span style=&quot;font-size: 12px; text-wrap-mode: wrap;&quot;&gt;&quot;zaba_review.txt&quot;&lt;/span&gt;" style="html=1;verticalAlign=bottom;startArrow=oval;startFill=1;endArrow=block;startSize=8;curved=0;rounded=0;" parent="1" edge="1">
          <mxGeometry x="0.3333" y="-60" width="60" relative="1" as="geometry">
            <mxPoint x="1360" y="1722" as="sourcePoint" />
            <mxPoint x="1360" y="1752" as="targetPoint" />
            <mxPoint as="offset" />
          </mxGeometry>
        </mxCell>
        <mxCell id="aXQiDmJrJk_II0E27TAM-189" value="&lt;span style=&quot;font-size: 12px; text-wrap-mode: wrap;&quot;&gt;&quot;zus_review.txt&quot;&lt;/span&gt;" style="html=1;verticalAlign=bottom;startArrow=oval;startFill=1;endArrow=block;startSize=8;curved=0;rounded=0;" parent="1" edge="1">
          <mxGeometry x="0.3333" y="-50" width="60" relative="1" as="geometry">
            <mxPoint x="1440" y="1542" as="sourcePoint" />
            <mxPoint x="1440" y="1572" as="targetPoint" />
            <mxPoint as="offset" />
          </mxGeometry>
        </mxCell>
        <mxCell id="aXQiDmJrJk_II0E27TAM-191" value="handle_invalid_option()" style="whiteSpace=wrap;html=1;" parent="1" vertex="1">
          <mxGeometry x="1520" y="1582" width="130" height="60" as="geometry" />
        </mxCell>
        <mxCell id="aXQiDmJrJk_II0E27TAM-192" value="quit()" style="whiteSpace=wrap;html=1;" parent="1" vertex="1">
          <mxGeometry x="1390" y="1402" width="120" height="60" as="geometry" />
        </mxCell>
        <mxCell id="aXQiDmJrJk_II0E27TAM-193" value="selech ch()" style="whiteSpace=wrap;html=1;" parent="1" vertex="1">
          <mxGeometry x="1230" y="1402" width="120" height="60" as="geometry" />
        </mxCell>
        <mxCell id="aXQiDmJrJk_II0E27TAM-194" value="" style="endArrow=none;html=1;rounded=0;entryX=0.5;entryY=1;entryDx=0;entryDy=0;exitX=0.5;exitY=0;exitDx=0;exitDy=0;" parent="1" source="aXQiDmJrJk_II0E27TAM-193" target="aXQiDmJrJk_II0E27TAM-171" edge="1">
          <mxGeometry width="50" height="50" relative="1" as="geometry">
            <mxPoint x="1290" y="1592" as="sourcePoint" />
            <mxPoint x="1340" y="1542" as="targetPoint" />
            <Array as="points">
              <mxPoint x="1290" y="1352" />
              <mxPoint x="1150" y="1352" />
            </Array>
          </mxGeometry>
        </mxCell>
        <mxCell id="aXQiDmJrJk_II0E27TAM-195" value="" style="endArrow=none;html=1;rounded=0;entryX=0.5;entryY=1;entryDx=0;entryDy=0;exitX=0.5;exitY=0;exitDx=0;exitDy=0;" parent="1" source="aXQiDmJrJk_II0E27TAM-192" target="aXQiDmJrJk_II0E27TAM-171" edge="1">
          <mxGeometry width="50" height="50" relative="1" as="geometry">
            <mxPoint x="1290" y="1592" as="sourcePoint" />
            <mxPoint x="1340" y="1542" as="targetPoint" />
            <Array as="points">
              <mxPoint x="1450" y="1352" />
              <mxPoint x="1150" y="1352" />
            </Array>
          </mxGeometry>
        </mxCell>
        <mxCell id="aXQiDmJrJk_II0E27TAM-196" value="(+)" style="text;html=1;align=center;verticalAlign=middle;resizable=0;points=[];autosize=1;strokeColor=none;fillColor=none;" parent="1" vertex="1">
          <mxGeometry x="1370" y="1352" width="40" height="30" as="geometry" />
        </mxCell>
        <mxCell id="aXQiDmJrJk_II0E27TAM-197" value="" style="endArrow=none;html=1;rounded=0;entryX=0.5;entryY=1;entryDx=0;entryDy=0;exitX=0.5;exitY=0;exitDx=0;exitDy=0;" parent="1" source="aXQiDmJrJk_II0E27TAM-175" target="aXQiDmJrJk_II0E27TAM-193" edge="1">
          <mxGeometry width="50" height="50" relative="1" as="geometry">
            <mxPoint x="1290" y="1592" as="sourcePoint" />
            <mxPoint x="1340" y="1542" as="targetPoint" />
            <Array as="points">
              <mxPoint x="960" y="1492" />
              <mxPoint x="1290" y="1492" />
            </Array>
          </mxGeometry>
        </mxCell>
        <mxCell id="aXQiDmJrJk_II0E27TAM-198" value="" style="endArrow=none;html=1;rounded=0;entryX=0.5;entryY=1;entryDx=0;entryDy=0;exitX=0.5;exitY=0;exitDx=0;exitDy=0;" parent="1" source="aXQiDmJrJk_II0E27TAM-178" target="aXQiDmJrJk_II0E27TAM-193" edge="1">
          <mxGeometry width="50" height="50" relative="1" as="geometry">
            <mxPoint x="1290" y="1592" as="sourcePoint" />
            <mxPoint x="1340" y="1542" as="targetPoint" />
            <Array as="points">
              <mxPoint x="1110" y="1492" />
              <mxPoint x="1290" y="1492" />
            </Array>
          </mxGeometry>
        </mxCell>
        <mxCell id="aXQiDmJrJk_II0E27TAM-199" value="" style="endArrow=none;html=1;rounded=0;entryX=0.5;entryY=1;entryDx=0;entryDy=0;exitX=0.5;exitY=0;exitDx=0;exitDy=0;" parent="1" source="aXQiDmJrJk_II0E27TAM-182" target="aXQiDmJrJk_II0E27TAM-193" edge="1">
          <mxGeometry width="50" height="50" relative="1" as="geometry">
            <mxPoint x="1290" y="1592" as="sourcePoint" />
            <mxPoint x="1340" y="1542" as="targetPoint" />
            <Array as="points">
              <mxPoint x="1260" y="1492" />
              <mxPoint x="1290" y="1492" />
            </Array>
          </mxGeometry>
        </mxCell>
        <mxCell id="aXQiDmJrJk_II0E27TAM-200" value="" style="endArrow=none;html=1;rounded=0;entryX=0.5;entryY=1;entryDx=0;entryDy=0;exitX=0.5;exitY=0;exitDx=0;exitDy=0;" parent="1" source="aXQiDmJrJk_II0E27TAM-179" target="aXQiDmJrJk_II0E27TAM-193" edge="1">
          <mxGeometry width="50" height="50" relative="1" as="geometry">
            <mxPoint x="1290" y="1592" as="sourcePoint" />
            <mxPoint x="1340" y="1542" as="targetPoint" />
            <Array as="points">
              <mxPoint x="1430" y="1492" />
              <mxPoint x="1290" y="1492" />
            </Array>
          </mxGeometry>
        </mxCell>
        <mxCell id="aXQiDmJrJk_II0E27TAM-201" value="" style="endArrow=none;html=1;rounded=0;entryX=0.5;entryY=1;entryDx=0;entryDy=0;exitX=0.5;exitY=0;exitDx=0;exitDy=0;" parent="1" source="aXQiDmJrJk_II0E27TAM-191" target="aXQiDmJrJk_II0E27TAM-193" edge="1">
          <mxGeometry width="50" height="50" relative="1" as="geometry">
            <mxPoint x="1290" y="1592" as="sourcePoint" />
            <mxPoint x="1340" y="1542" as="targetPoint" />
            <Array as="points">
              <mxPoint x="1585" y="1492" />
              <mxPoint x="1290" y="1492" />
            </Array>
          </mxGeometry>
        </mxCell>
        <mxCell id="aXQiDmJrJk_II0E27TAM-202" value="" style="endArrow=none;html=1;rounded=0;entryX=0.5;entryY=1;entryDx=0;entryDy=0;exitX=0.5;exitY=0;exitDx=0;exitDy=0;" parent="1" source="aXQiDmJrJk_II0E27TAM-176" target="aXQiDmJrJk_II0E27TAM-193" edge="1">
          <mxGeometry width="50" height="50" relative="1" as="geometry">
            <mxPoint x="1290" y="1592" as="sourcePoint" />
            <mxPoint x="1340" y="1542" as="targetPoint" />
            <Array as="points">
              <mxPoint x="1040" y="1492" />
              <mxPoint x="1290" y="1492" />
            </Array>
          </mxGeometry>
        </mxCell>
        <mxCell id="aXQiDmJrJk_II0E27TAM-203" value="" style="endArrow=none;html=1;rounded=0;entryX=0.5;entryY=1;entryDx=0;entryDy=0;exitX=0.5;exitY=0;exitDx=0;exitDy=0;" parent="1" source="aXQiDmJrJk_II0E27TAM-177" target="aXQiDmJrJk_II0E27TAM-193" edge="1">
          <mxGeometry width="50" height="50" relative="1" as="geometry">
            <mxPoint x="1290" y="1592" as="sourcePoint" />
            <mxPoint x="1340" y="1542" as="targetPoint" />
            <Array as="points">
              <mxPoint x="1190" y="1492" />
              <mxPoint x="1290" y="1492" />
            </Array>
          </mxGeometry>
        </mxCell>
        <mxCell id="aXQiDmJrJk_II0E27TAM-204" value="" style="endArrow=none;html=1;rounded=0;entryX=0.5;entryY=1;entryDx=0;entryDy=0;exitX=0.5;exitY=0;exitDx=0;exitDy=0;" parent="1" source="aXQiDmJrJk_II0E27TAM-181" target="aXQiDmJrJk_II0E27TAM-193" edge="1">
          <mxGeometry width="50" height="50" relative="1" as="geometry">
            <mxPoint x="1290" y="1592" as="sourcePoint" />
            <mxPoint x="1340" y="1542" as="targetPoint" />
            <Array as="points">
              <mxPoint x="1350" y="1492" />
              <mxPoint x="1290" y="1492" />
            </Array>
          </mxGeometry>
        </mxCell>
        <mxCell id="aXQiDmJrJk_II0E27TAM-206" value="invalid_input()" style="whiteSpace=wrap;html=1;" parent="1" vertex="1">
          <mxGeometry x="1530" y="1402" width="120" height="60" as="geometry" />
        </mxCell>
        <mxCell id="aXQiDmJrJk_II0E27TAM-207" value="" style="endArrow=none;html=1;rounded=0;entryX=0.5;entryY=1;entryDx=0;entryDy=0;exitX=0.5;exitY=0;exitDx=0;exitDy=0;" parent="1" source="aXQiDmJrJk_II0E27TAM-206" target="aXQiDmJrJk_II0E27TAM-171" edge="1">
          <mxGeometry width="50" height="50" relative="1" as="geometry">
            <mxPoint x="1290" y="1592" as="sourcePoint" />
            <mxPoint x="1340" y="1542" as="targetPoint" />
            <Array as="points">
              <mxPoint x="1590" y="1352" />
              <mxPoint x="1150" y="1352" />
            </Array>
          </mxGeometry>
        </mxCell>
        <mxCell id="aXQiDmJrJk_II0E27TAM-208" value="14" style="ellipse;whiteSpace=wrap;html=1;" parent="1" vertex="1">
          <mxGeometry x="950" y="1662" width="20" height="20" as="geometry" />
        </mxCell>
        <mxCell id="aXQiDmJrJk_II0E27TAM-210" value="14" style="ellipse;whiteSpace=wrap;html=1;" parent="1" vertex="1">
          <mxGeometry x="1420" y="1662" width="20" height="20" as="geometry" />
        </mxCell>
        <mxCell id="aXQiDmJrJk_II0E27TAM-211" value="14" style="ellipse;whiteSpace=wrap;html=1;" parent="1" vertex="1">
          <mxGeometry x="1340" y="1837" width="20" height="20" as="geometry" />
        </mxCell>
        <mxCell id="aXQiDmJrJk_II0E27TAM-212" value="14" style="ellipse;whiteSpace=wrap;html=1;" parent="1" vertex="1">
          <mxGeometry x="1250" y="1662" width="20" height="20" as="geometry" />
        </mxCell>
        <mxCell id="aXQiDmJrJk_II0E27TAM-213" value="14" style="ellipse;whiteSpace=wrap;html=1;" parent="1" vertex="1">
          <mxGeometry x="1180" y="1837" width="20" height="20" as="geometry" />
        </mxCell>
        <mxCell id="aXQiDmJrJk_II0E27TAM-214" value="14" style="ellipse;whiteSpace=wrap;html=1;" parent="1" vertex="1">
          <mxGeometry x="1100" y="1662" width="20" height="20" as="geometry" />
        </mxCell>
        <mxCell id="aXQiDmJrJk_II0E27TAM-215" value="14" style="ellipse;whiteSpace=wrap;html=1;" parent="1" vertex="1">
          <mxGeometry x="1030" y="1842" width="20" height="20" as="geometry" />
        </mxCell>
        <mxCell id="aXQiDmJrJk_II0E27TAM-216" value="" style="endArrow=none;html=1;rounded=0;entryX=0.5;entryY=1;entryDx=0;entryDy=0;exitX=0.5;exitY=0;exitDx=0;exitDy=0;" parent="1" source="aXQiDmJrJk_II0E27TAM-208" target="aXQiDmJrJk_II0E27TAM-175" edge="1">
          <mxGeometry width="50" height="50" relative="1" as="geometry">
            <mxPoint x="1100" y="1662" as="sourcePoint" />
            <mxPoint x="1150" y="1612" as="targetPoint" />
          </mxGeometry>
        </mxCell>
        <mxCell id="aXQiDmJrJk_II0E27TAM-217" value="" style="endArrow=none;html=1;rounded=0;exitX=0.5;exitY=0;exitDx=0;exitDy=0;entryX=0.5;entryY=1;entryDx=0;entryDy=0;" parent="1" source="aXQiDmJrJk_II0E27TAM-214" target="aXQiDmJrJk_II0E27TAM-178" edge="1">
          <mxGeometry width="50" height="50" relative="1" as="geometry">
            <mxPoint x="1100" y="1662" as="sourcePoint" />
            <mxPoint x="1150" y="1612" as="targetPoint" />
          </mxGeometry>
        </mxCell>
        <mxCell id="aXQiDmJrJk_II0E27TAM-218" value="" style="endArrow=none;html=1;rounded=0;entryX=0.5;entryY=1;entryDx=0;entryDy=0;exitX=0.5;exitY=0;exitDx=0;exitDy=0;" parent="1" source="aXQiDmJrJk_II0E27TAM-212" target="aXQiDmJrJk_II0E27TAM-182" edge="1">
          <mxGeometry width="50" height="50" relative="1" as="geometry">
            <mxPoint x="1100" y="1662" as="sourcePoint" />
            <mxPoint x="1150" y="1612" as="targetPoint" />
          </mxGeometry>
        </mxCell>
        <mxCell id="aXQiDmJrJk_II0E27TAM-219" value="" style="endArrow=none;html=1;rounded=0;exitX=0.5;exitY=0;exitDx=0;exitDy=0;entryX=0.5;entryY=1;entryDx=0;entryDy=0;" parent="1" source="aXQiDmJrJk_II0E27TAM-215" target="aXQiDmJrJk_II0E27TAM-176" edge="1">
          <mxGeometry width="50" height="50" relative="1" as="geometry">
            <mxPoint x="1100" y="1662" as="sourcePoint" />
            <mxPoint x="1150" y="1612" as="targetPoint" />
          </mxGeometry>
        </mxCell>
        <mxCell id="aXQiDmJrJk_II0E27TAM-220" value="" style="endArrow=none;html=1;rounded=0;exitX=0.5;exitY=0;exitDx=0;exitDy=0;entryX=0.5;entryY=1;entryDx=0;entryDy=0;" parent="1" source="aXQiDmJrJk_II0E27TAM-213" target="aXQiDmJrJk_II0E27TAM-177" edge="1">
          <mxGeometry width="50" height="50" relative="1" as="geometry">
            <mxPoint x="1100" y="1662" as="sourcePoint" />
            <mxPoint x="1150" y="1612" as="targetPoint" />
          </mxGeometry>
        </mxCell>
        <mxCell id="aXQiDmJrJk_II0E27TAM-221" value="" style="endArrow=none;html=1;rounded=0;exitX=0.5;exitY=0;exitDx=0;exitDy=0;entryX=0.5;entryY=1;entryDx=0;entryDy=0;" parent="1" source="aXQiDmJrJk_II0E27TAM-211" target="aXQiDmJrJk_II0E27TAM-181" edge="1">
          <mxGeometry width="50" height="50" relative="1" as="geometry">
            <mxPoint x="1380" y="1662" as="sourcePoint" />
            <mxPoint x="1430" y="1612" as="targetPoint" />
          </mxGeometry>
        </mxCell>
        <mxCell id="aXQiDmJrJk_II0E27TAM-223" value="cafe_r()" style="text;html=1;align=center;verticalAlign=middle;resizable=0;points=[];autosize=1;strokeColor=none;fillColor=none;" parent="1" vertex="1">
          <mxGeometry x="850" y="1270" width="60" height="30" as="geometry" />
        </mxCell>
        <mxCell id="aXQiDmJrJk_II0E27TAM-224" value="" style="endArrow=none;html=1;rounded=0;entryX=0.5;entryY=1;entryDx=0;entryDy=0;exitX=0.5;exitY=0;exitDx=0;exitDy=0;" parent="1" source="aXQiDmJrJk_II0E27TAM-210" target="aXQiDmJrJk_II0E27TAM-179" edge="1">
          <mxGeometry width="50" height="50" relative="1" as="geometry">
            <mxPoint x="1370" y="1700" as="sourcePoint" />
            <mxPoint x="1420" y="1650" as="targetPoint" />
          </mxGeometry>
        </mxCell>
        <mxCell id="aXQiDmJrJk_II0E27TAM-225" value="" style="endArrow=none;html=1;rounded=0;entryX=0.5;entryY=1;entryDx=0;entryDy=0;exitX=0.5;exitY=0;exitDx=0;exitDy=0;" parent="1" source="aXQiDmJrJk_II0E27TAM-59" target="aXQiDmJrJk_II0E27TAM-13" edge="1">
          <mxGeometry width="50" height="50" relative="1" as="geometry">
            <mxPoint x="1360" y="570" as="sourcePoint" />
            <mxPoint x="1410" y="520" as="targetPoint" />
          </mxGeometry>
        </mxCell>
        <mxCell id="aXQiDmJrJk_II0E27TAM-226" value="(+)" style="text;html=1;align=center;verticalAlign=middle;resizable=0;points=[];autosize=1;strokeColor=none;fillColor=none;" parent="1" vertex="1">
          <mxGeometry x="980" y="1500" width="40" height="30" as="geometry" />
        </mxCell>
        <mxCell id="aXQiDmJrJk_II0E27TAM-227" value="(+)" style="text;html=1;align=center;verticalAlign=middle;resizable=0;points=[];autosize=1;strokeColor=none;fillColor=none;" parent="1" vertex="1">
          <mxGeometry x="1270" y="1490" width="40" height="30" as="geometry" />
        </mxCell>
        <mxCell id="aXQiDmJrJk_II0E27TAM-228" value="(+)" style="text;html=1;align=center;verticalAlign=middle;resizable=0;points=[];autosize=1;strokeColor=none;fillColor=none;" parent="1" vertex="1">
          <mxGeometry x="1200" y="1500" width="40" height="30" as="geometry" />
        </mxCell>
        <mxCell id="aXQiDmJrJk_II0E27TAM-229" value="(+)" style="text;html=1;align=center;verticalAlign=middle;resizable=0;points=[];autosize=1;strokeColor=none;fillColor=none;" parent="1" vertex="1">
          <mxGeometry x="1130" y="1490" width="40" height="30" as="geometry" />
        </mxCell>
        <mxCell id="aXQiDmJrJk_II0E27TAM-230" value="(+)" style="text;html=1;align=center;verticalAlign=middle;resizable=0;points=[];autosize=1;strokeColor=none;fillColor=none;" parent="1" vertex="1">
          <mxGeometry x="1050" y="1500" width="40" height="30" as="geometry" />
        </mxCell>
        <mxCell id="aXQiDmJrJk_II0E27TAM-231" value="(+)" style="text;html=1;align=center;verticalAlign=middle;resizable=0;points=[];autosize=1;strokeColor=none;fillColor=none;" parent="1" vertex="1">
          <mxGeometry x="1370" y="1490" width="40" height="30" as="geometry" />
        </mxCell>
        <mxCell id="aXQiDmJrJk_II0E27TAM-232" value="(+)" style="text;html=1;align=center;verticalAlign=middle;resizable=0;points=[];autosize=1;strokeColor=none;fillColor=none;" parent="1" vertex="1">
          <mxGeometry x="1490" y="1490" width="40" height="30" as="geometry" />
        </mxCell>
        <mxCell id="aXQiDmJrJk_II0E27TAM-233" value="(+)" style="text;html=1;align=center;verticalAlign=middle;resizable=0;points=[];autosize=1;strokeColor=none;fillColor=none;" parent="1" vertex="1">
          <mxGeometry x="1120" y="310" width="40" height="30" as="geometry" />
        </mxCell>
        <mxCell id="aXQiDmJrJk_II0E27TAM-234" value="(+)" style="text;html=1;align=center;verticalAlign=middle;resizable=0;points=[];autosize=1;strokeColor=none;fillColor=none;" parent="1" vertex="1">
          <mxGeometry x="1200" y="315" width="40" height="30" as="geometry" />
        </mxCell>
        <mxCell id="aXQiDmJrJk_II0E27TAM-235" value="(+)" style="text;html=1;align=center;verticalAlign=middle;resizable=0;points=[];autosize=1;strokeColor=none;fillColor=none;" parent="1" vertex="1">
          <mxGeometry x="1270" y="315" width="40" height="30" as="geometry" />
        </mxCell>
        <mxCell id="aXQiDmJrJk_II0E27TAM-236" value="(+)" style="text;html=1;align=center;verticalAlign=middle;resizable=0;points=[];autosize=1;strokeColor=none;fillColor=none;" parent="1" vertex="1">
          <mxGeometry x="1360" y="315" width="40" height="30" as="geometry" />
        </mxCell>
        <mxCell id="aXQiDmJrJk_II0E27TAM-237" value="(+)" style="text;html=1;align=center;verticalAlign=middle;resizable=0;points=[];autosize=1;strokeColor=none;fillColor=none;" parent="1" vertex="1">
          <mxGeometry x="1440" y="315" width="40" height="30" as="geometry" />
        </mxCell>
        <mxCell id="aXQiDmJrJk_II0E27TAM-238" value="(+)" style="text;html=1;align=center;verticalAlign=middle;resizable=0;points=[];autosize=1;strokeColor=none;fillColor=none;" parent="1" vertex="1">
          <mxGeometry x="1510" y="310" width="40" height="30" as="geometry" />
        </mxCell>
        <mxCell id="aXQiDmJrJk_II0E27TAM-241" value="(+)" style="text;html=1;align=center;verticalAlign=middle;resizable=0;points=[];autosize=1;strokeColor=none;fillColor=none;" parent="1" vertex="1">
          <mxGeometry x="970" y="315" width="40" height="30" as="geometry" />
        </mxCell>
        <mxCell id="aXQiDmJrJk_II0E27TAM-242" value="8" style="ellipse;whiteSpace=wrap;html=1;" parent="1" vertex="1">
          <mxGeometry x="1980" y="1334" width="20" height="20" as="geometry" />
        </mxCell>
        <mxCell id="aXQiDmJrJk_II0E27TAM-243" value="clearscreen()" style="whiteSpace=wrap;html=1;" parent="1" vertex="1">
          <mxGeometry x="1670" y="1444" width="120" height="60" as="geometry" />
        </mxCell>
        <mxCell id="aXQiDmJrJk_II0E27TAM-244" value="" style="verticalLabelPosition=bottom;html=1;verticalAlign=top;strokeWidth=2;shape=mxgraph.lean_mapping.physical_pull;pointerEvents=1;" parent="1" vertex="1">
          <mxGeometry x="1980" y="1374" width="20" height="10" as="geometry" />
        </mxCell>
        <mxCell id="aXQiDmJrJk_II0E27TAM-245" value="" style="endArrow=none;html=1;rounded=0;entryX=0.5;entryY=1;entryDx=0;entryDy=0;exitX=0.5;exitY=0;exitDx=0;exitDy=0;" parent="1" source="aXQiDmJrJk_II0E27TAM-243" target="aXQiDmJrJk_II0E27TAM-242" edge="1">
          <mxGeometry width="50" height="50" relative="1" as="geometry">
            <mxPoint x="1940" y="1564" as="sourcePoint" />
            <mxPoint x="1990" y="1514" as="targetPoint" />
            <Array as="points">
              <mxPoint x="1730" y="1394" />
              <mxPoint x="1990" y="1394" />
            </Array>
          </mxGeometry>
        </mxCell>
        <mxCell id="aXQiDmJrJk_II0E27TAM-246" value="track()" style="whiteSpace=wrap;html=1;" parent="1" vertex="1">
          <mxGeometry x="1740" y="1634" width="120" height="60" as="geometry" />
        </mxCell>
        <mxCell id="aXQiDmJrJk_II0E27TAM-249" value="track()" style="whiteSpace=wrap;html=1;" parent="1" vertex="1">
          <mxGeometry x="1890" y="1634" width="120" height="60" as="geometry" />
        </mxCell>
        <mxCell id="aXQiDmJrJk_II0E27TAM-250" value="track()" style="whiteSpace=wrap;html=1;" parent="1" vertex="1">
          <mxGeometry x="2210" y="1624" width="120" height="60" as="geometry" />
        </mxCell>
        <mxCell id="aXQiDmJrJk_II0E27TAM-252" value="track()" style="whiteSpace=wrap;html=1;" parent="1" vertex="1">
          <mxGeometry x="2040" y="1634" width="120" height="60" as="geometry" />
        </mxCell>
        <mxCell id="aXQiDmJrJk_II0E27TAM-253" value="&lt;span style=&quot;font-size: 12px; text-wrap-mode: wrap; background-color: rgb(236, 236, 236);&quot;&gt;&quot;burger_review.txt&quot;&lt;/span&gt;" style="html=1;verticalAlign=bottom;startArrow=oval;startFill=1;endArrow=block;startSize=8;curved=0;rounded=0;" parent="1" edge="1">
          <mxGeometry x="1" y="-70" width="60" relative="1" as="geometry">
            <mxPoint x="1810" y="1594" as="sourcePoint" />
            <mxPoint x="1810" y="1624" as="targetPoint" />
            <mxPoint as="offset" />
          </mxGeometry>
        </mxCell>
        <mxCell id="aXQiDmJrJk_II0E27TAM-255" value="&lt;span style=&quot;font-size: 12px; text-wrap-mode: wrap;&quot;&gt;&quot;domino_&lt;/span&gt;&lt;div&gt;&lt;span style=&quot;font-size: 12px; text-wrap-mode: wrap;&quot;&gt;review.txt&quot;&lt;/span&gt;&lt;/div&gt;" style="html=1;verticalAlign=bottom;startArrow=oval;startFill=1;endArrow=block;startSize=8;curved=0;rounded=0;" parent="1" edge="1">
          <mxGeometry x="1" y="-50" width="60" relative="1" as="geometry">
            <mxPoint x="1959.33" y="1604" as="sourcePoint" />
            <mxPoint x="1959.33" y="1634" as="targetPoint" />
            <mxPoint as="offset" />
          </mxGeometry>
        </mxCell>
        <mxCell id="aXQiDmJrJk_II0E27TAM-257" value="&lt;span style=&quot;font-size: 12px; text-wrap-mode: wrap;&quot;&gt;&quot;kfc_review.txt&quot;&lt;/span&gt;" style="html=1;verticalAlign=bottom;startArrow=oval;startFill=1;endArrow=block;startSize=8;curved=0;rounded=0;" parent="1" edge="1">
          <mxGeometry x="1" y="-69" width="60" relative="1" as="geometry">
            <mxPoint x="2109.33" y="1597" as="sourcePoint" />
            <mxPoint x="2109.33" y="1627" as="targetPoint" />
            <mxPoint as="offset" />
          </mxGeometry>
        </mxCell>
        <mxCell id="aXQiDmJrJk_II0E27TAM-259" value="&lt;span style=&quot;font-size: 12px; text-wrap-mode: wrap;&quot;&gt;&quot;pizza_review.txt&quot;&lt;/span&gt;" style="html=1;verticalAlign=bottom;startArrow=oval;startFill=1;endArrow=block;startSize=8;curved=0;rounded=0;" parent="1" edge="1">
          <mxGeometry x="0.2" y="-59" width="60" relative="1" as="geometry">
            <mxPoint x="2279.33" y="1592" as="sourcePoint" />
            <mxPoint x="2279.33" y="1622" as="targetPoint" />
            <mxPoint as="offset" />
          </mxGeometry>
        </mxCell>
        <mxCell id="aXQiDmJrJk_II0E27TAM-260" value="handle_invalid_option()" style="whiteSpace=wrap;html=1;" parent="1" vertex="1">
          <mxGeometry x="2360" y="1624" width="130" height="60" as="geometry" />
        </mxCell>
        <mxCell id="aXQiDmJrJk_II0E27TAM-261" value="quit()" style="whiteSpace=wrap;html=1;" parent="1" vertex="1">
          <mxGeometry x="2230" y="1444" width="120" height="60" as="geometry" />
        </mxCell>
        <mxCell id="aXQiDmJrJk_II0E27TAM-262" value="selech ch()" style="whiteSpace=wrap;html=1;" parent="1" vertex="1">
          <mxGeometry x="2070" y="1444" width="120" height="60" as="geometry" />
        </mxCell>
        <mxCell id="aXQiDmJrJk_II0E27TAM-263" value="" style="endArrow=none;html=1;rounded=0;entryX=0.5;entryY=1;entryDx=0;entryDy=0;exitX=0.5;exitY=0;exitDx=0;exitDy=0;" parent="1" source="aXQiDmJrJk_II0E27TAM-262" target="aXQiDmJrJk_II0E27TAM-242" edge="1">
          <mxGeometry width="50" height="50" relative="1" as="geometry">
            <mxPoint x="2130" y="1634" as="sourcePoint" />
            <mxPoint x="2180" y="1584" as="targetPoint" />
            <Array as="points">
              <mxPoint x="2130" y="1394" />
              <mxPoint x="1990" y="1394" />
            </Array>
          </mxGeometry>
        </mxCell>
        <mxCell id="aXQiDmJrJk_II0E27TAM-264" value="" style="endArrow=none;html=1;rounded=0;entryX=0.5;entryY=1;entryDx=0;entryDy=0;exitX=0.5;exitY=0;exitDx=0;exitDy=0;" parent="1" source="aXQiDmJrJk_II0E27TAM-261" target="aXQiDmJrJk_II0E27TAM-242" edge="1">
          <mxGeometry width="50" height="50" relative="1" as="geometry">
            <mxPoint x="2130" y="1634" as="sourcePoint" />
            <mxPoint x="2180" y="1584" as="targetPoint" />
            <Array as="points">
              <mxPoint x="2290" y="1394" />
              <mxPoint x="1990" y="1394" />
            </Array>
          </mxGeometry>
        </mxCell>
        <mxCell id="aXQiDmJrJk_II0E27TAM-265" value="(+)" style="text;html=1;align=center;verticalAlign=middle;resizable=0;points=[];autosize=1;strokeColor=none;fillColor=none;" parent="1" vertex="1">
          <mxGeometry x="2210" y="1394" width="40" height="30" as="geometry" />
        </mxCell>
        <mxCell id="aXQiDmJrJk_II0E27TAM-266" value="" style="endArrow=none;html=1;rounded=0;entryX=0.5;entryY=1;entryDx=0;entryDy=0;exitX=0.5;exitY=0;exitDx=0;exitDy=0;" parent="1" source="aXQiDmJrJk_II0E27TAM-246" target="aXQiDmJrJk_II0E27TAM-262" edge="1">
          <mxGeometry width="50" height="50" relative="1" as="geometry">
            <mxPoint x="2130" y="1634" as="sourcePoint" />
            <mxPoint x="2180" y="1584" as="targetPoint" />
            <Array as="points">
              <mxPoint x="1800" y="1534" />
              <mxPoint x="2130" y="1534" />
            </Array>
          </mxGeometry>
        </mxCell>
        <mxCell id="aXQiDmJrJk_II0E27TAM-267" value="" style="endArrow=none;html=1;rounded=0;entryX=0.5;entryY=1;entryDx=0;entryDy=0;exitX=0.5;exitY=0;exitDx=0;exitDy=0;" parent="1" source="aXQiDmJrJk_II0E27TAM-249" target="aXQiDmJrJk_II0E27TAM-262" edge="1">
          <mxGeometry width="50" height="50" relative="1" as="geometry">
            <mxPoint x="2130" y="1634" as="sourcePoint" />
            <mxPoint x="2180" y="1584" as="targetPoint" />
            <Array as="points">
              <mxPoint x="1950" y="1534" />
              <mxPoint x="2130" y="1534" />
            </Array>
          </mxGeometry>
        </mxCell>
        <mxCell id="aXQiDmJrJk_II0E27TAM-268" value="" style="endArrow=none;html=1;rounded=0;entryX=0.5;entryY=1;entryDx=0;entryDy=0;exitX=0.5;exitY=0;exitDx=0;exitDy=0;" parent="1" source="aXQiDmJrJk_II0E27TAM-252" target="aXQiDmJrJk_II0E27TAM-262" edge="1">
          <mxGeometry width="50" height="50" relative="1" as="geometry">
            <mxPoint x="2130" y="1634" as="sourcePoint" />
            <mxPoint x="2180" y="1584" as="targetPoint" />
            <Array as="points">
              <mxPoint x="2100" y="1534" />
              <mxPoint x="2130" y="1534" />
            </Array>
          </mxGeometry>
        </mxCell>
        <mxCell id="aXQiDmJrJk_II0E27TAM-269" value="" style="endArrow=none;html=1;rounded=0;entryX=0.5;entryY=1;entryDx=0;entryDy=0;exitX=0.5;exitY=0;exitDx=0;exitDy=0;" parent="1" source="aXQiDmJrJk_II0E27TAM-250" target="aXQiDmJrJk_II0E27TAM-262" edge="1">
          <mxGeometry width="50" height="50" relative="1" as="geometry">
            <mxPoint x="2130" y="1634" as="sourcePoint" />
            <mxPoint x="2180" y="1584" as="targetPoint" />
            <Array as="points">
              <mxPoint x="2270" y="1534" />
              <mxPoint x="2130" y="1534" />
            </Array>
          </mxGeometry>
        </mxCell>
        <mxCell id="aXQiDmJrJk_II0E27TAM-270" value="" style="endArrow=none;html=1;rounded=0;entryX=0.5;entryY=1;entryDx=0;entryDy=0;exitX=0.5;exitY=0;exitDx=0;exitDy=0;" parent="1" source="aXQiDmJrJk_II0E27TAM-260" target="aXQiDmJrJk_II0E27TAM-262" edge="1">
          <mxGeometry width="50" height="50" relative="1" as="geometry">
            <mxPoint x="2130" y="1634" as="sourcePoint" />
            <mxPoint x="2180" y="1584" as="targetPoint" />
            <Array as="points">
              <mxPoint x="2425" y="1534" />
              <mxPoint x="2130" y="1534" />
            </Array>
          </mxGeometry>
        </mxCell>
        <mxCell id="aXQiDmJrJk_II0E27TAM-274" value="invalid_input()" style="whiteSpace=wrap;html=1;" parent="1" vertex="1">
          <mxGeometry x="2370" y="1444" width="120" height="60" as="geometry" />
        </mxCell>
        <mxCell id="aXQiDmJrJk_II0E27TAM-275" value="" style="endArrow=none;html=1;rounded=0;entryX=0.5;entryY=1;entryDx=0;entryDy=0;exitX=0.5;exitY=0;exitDx=0;exitDy=0;" parent="1" source="aXQiDmJrJk_II0E27TAM-274" target="aXQiDmJrJk_II0E27TAM-242" edge="1">
          <mxGeometry width="50" height="50" relative="1" as="geometry">
            <mxPoint x="2130" y="1634" as="sourcePoint" />
            <mxPoint x="2180" y="1584" as="targetPoint" />
            <Array as="points">
              <mxPoint x="2430" y="1394" />
              <mxPoint x="1990" y="1394" />
            </Array>
          </mxGeometry>
        </mxCell>
        <mxCell id="aXQiDmJrJk_II0E27TAM-276" value="14" style="ellipse;whiteSpace=wrap;html=1;" parent="1" vertex="1">
          <mxGeometry x="1790" y="1704" width="20" height="20" as="geometry" />
        </mxCell>
        <mxCell id="aXQiDmJrJk_II0E27TAM-277" value="14" style="ellipse;whiteSpace=wrap;html=1;" parent="1" vertex="1">
          <mxGeometry x="2260" y="1704" width="20" height="20" as="geometry" />
        </mxCell>
        <mxCell id="aXQiDmJrJk_II0E27TAM-279" value="14" style="ellipse;whiteSpace=wrap;html=1;" parent="1" vertex="1">
          <mxGeometry x="2090" y="1704" width="20" height="20" as="geometry" />
        </mxCell>
        <mxCell id="aXQiDmJrJk_II0E27TAM-281" value="14" style="ellipse;whiteSpace=wrap;html=1;" parent="1" vertex="1">
          <mxGeometry x="1940" y="1704" width="20" height="20" as="geometry" />
        </mxCell>
        <mxCell id="aXQiDmJrJk_II0E27TAM-283" value="" style="endArrow=none;html=1;rounded=0;entryX=0.5;entryY=1;entryDx=0;entryDy=0;exitX=0.5;exitY=0;exitDx=0;exitDy=0;" parent="1" source="aXQiDmJrJk_II0E27TAM-276" target="aXQiDmJrJk_II0E27TAM-246" edge="1">
          <mxGeometry width="50" height="50" relative="1" as="geometry">
            <mxPoint x="1940" y="1704" as="sourcePoint" />
            <mxPoint x="1990" y="1654" as="targetPoint" />
          </mxGeometry>
        </mxCell>
        <mxCell id="aXQiDmJrJk_II0E27TAM-284" value="" style="endArrow=none;html=1;rounded=0;exitX=0.5;exitY=0;exitDx=0;exitDy=0;entryX=0.5;entryY=1;entryDx=0;entryDy=0;" parent="1" source="aXQiDmJrJk_II0E27TAM-281" target="aXQiDmJrJk_II0E27TAM-249" edge="1">
          <mxGeometry width="50" height="50" relative="1" as="geometry">
            <mxPoint x="1940" y="1704" as="sourcePoint" />
            <mxPoint x="1990" y="1654" as="targetPoint" />
          </mxGeometry>
        </mxCell>
        <mxCell id="aXQiDmJrJk_II0E27TAM-285" value="" style="endArrow=none;html=1;rounded=0;entryX=0.5;entryY=1;entryDx=0;entryDy=0;exitX=0.5;exitY=0;exitDx=0;exitDy=0;" parent="1" source="aXQiDmJrJk_II0E27TAM-279" target="aXQiDmJrJk_II0E27TAM-252" edge="1">
          <mxGeometry width="50" height="50" relative="1" as="geometry">
            <mxPoint x="1940" y="1704" as="sourcePoint" />
            <mxPoint x="1990" y="1654" as="targetPoint" />
          </mxGeometry>
        </mxCell>
        <mxCell id="aXQiDmJrJk_II0E27TAM-289" value="fast_food_r()" style="text;html=1;align=center;verticalAlign=middle;resizable=0;points=[];autosize=1;strokeColor=none;fillColor=none;" parent="1" vertex="1">
          <mxGeometry x="1675" y="1312" width="90" height="30" as="geometry" />
        </mxCell>
        <mxCell id="aXQiDmJrJk_II0E27TAM-290" value="" style="endArrow=none;html=1;rounded=0;entryX=0.5;entryY=1;entryDx=0;entryDy=0;exitX=0.5;exitY=0;exitDx=0;exitDy=0;" parent="1" source="aXQiDmJrJk_II0E27TAM-277" target="aXQiDmJrJk_II0E27TAM-250" edge="1">
          <mxGeometry width="50" height="50" relative="1" as="geometry">
            <mxPoint x="2210" y="1742" as="sourcePoint" />
            <mxPoint x="2260" y="1692" as="targetPoint" />
          </mxGeometry>
        </mxCell>
        <mxCell id="aXQiDmJrJk_II0E27TAM-291" value="(+)" style="text;html=1;align=center;verticalAlign=middle;resizable=0;points=[];autosize=1;strokeColor=none;fillColor=none;" parent="1" vertex="1">
          <mxGeometry x="1820" y="1542" width="40" height="30" as="geometry" />
        </mxCell>
        <mxCell id="aXQiDmJrJk_II0E27TAM-292" value="(+)" style="text;html=1;align=center;verticalAlign=middle;resizable=0;points=[];autosize=1;strokeColor=none;fillColor=none;" parent="1" vertex="1">
          <mxGeometry x="2110" y="1532" width="40" height="30" as="geometry" />
        </mxCell>
        <mxCell id="aXQiDmJrJk_II0E27TAM-294" value="(+)" style="text;html=1;align=center;verticalAlign=middle;resizable=0;points=[];autosize=1;strokeColor=none;fillColor=none;" parent="1" vertex="1">
          <mxGeometry x="1970" y="1532" width="40" height="30" as="geometry" />
        </mxCell>
        <mxCell id="aXQiDmJrJk_II0E27TAM-295" value="(+)" style="text;html=1;align=center;verticalAlign=middle;resizable=0;points=[];autosize=1;strokeColor=none;fillColor=none;" parent="1" vertex="1">
          <mxGeometry x="1890" y="1542" width="40" height="30" as="geometry" />
        </mxCell>
        <mxCell id="aXQiDmJrJk_II0E27TAM-296" value="(+)" style="text;html=1;align=center;verticalAlign=middle;resizable=0;points=[];autosize=1;strokeColor=none;fillColor=none;" parent="1" vertex="1">
          <mxGeometry x="2210" y="1532" width="40" height="30" as="geometry" />
        </mxCell>
        <mxCell id="aXQiDmJrJk_II0E27TAM-297" value="(+)" style="text;html=1;align=center;verticalAlign=middle;resizable=0;points=[];autosize=1;strokeColor=none;fillColor=none;" parent="1" vertex="1">
          <mxGeometry x="2330" y="1532" width="40" height="30" as="geometry" />
        </mxCell>
        <mxCell id="aXQiDmJrJk_II0E27TAM-300" value="16" style="ellipse;whiteSpace=wrap;html=1;" parent="1" vertex="1">
          <mxGeometry x="1960" y="930" width="20" height="20" as="geometry" />
        </mxCell>
        <mxCell id="aXQiDmJrJk_II0E27TAM-301" value="" style="endArrow=none;html=1;rounded=0;entryX=0.5;entryY=1;entryDx=0;entryDy=0;exitX=0.5;exitY=0;exitDx=0;exitDy=0;" parent="1" source="aXQiDmJrJk_II0E27TAM-300" target="aXQiDmJrJk_II0E27TAM-117" edge="1">
          <mxGeometry width="50" height="50" relative="1" as="geometry">
            <mxPoint x="2150" y="840" as="sourcePoint" />
            <mxPoint x="2200" y="790" as="targetPoint" />
          </mxGeometry>
        </mxCell>
        <mxCell id="aXQiDmJrJk_II0E27TAM-302" value="16" style="ellipse;whiteSpace=wrap;html=1;" parent="1" vertex="1">
          <mxGeometry x="3225" y="602" width="20" height="20" as="geometry" />
        </mxCell>
        <mxCell id="aXQiDmJrJk_II0E27TAM-303" value="" style="endArrow=none;html=1;rounded=0;entryX=0.5;entryY=1;entryDx=0;entryDy=0;exitX=0.5;exitY=0;exitDx=0;exitDy=0;" parent="1" source="aXQiDmJrJk_II0E27TAM-302" target="aXQiDmJrJk_II0E27TAM-158" edge="1">
          <mxGeometry width="50" height="50" relative="1" as="geometry">
            <mxPoint x="2795" y="512" as="sourcePoint" />
            <mxPoint x="2845" y="462" as="targetPoint" />
          </mxGeometry>
        </mxCell>
        <mxCell id="FiPmzuWMvT1c0JeipSYL-1" value="" style="rhombus;whiteSpace=wrap;html=1;" parent="1" vertex="1">
          <mxGeometry x="1425" y="130" width="30" height="30" as="geometry" />
        </mxCell>
        <mxCell id="FiPmzuWMvT1c0JeipSYL-2" value="" style="endArrow=none;html=1;rounded=0;entryX=0.5;entryY=1;entryDx=0;entryDy=0;exitX=0.5;exitY=0;exitDx=0;exitDy=0;" parent="1" source="FiPmzuWMvT1c0JeipSYL-1" target="aXQiDmJrJk_II0E27TAM-1" edge="1">
          <mxGeometry width="50" height="50" relative="1" as="geometry">
            <mxPoint x="1370" y="340" as="sourcePoint" />
            <mxPoint x="1420" y="290" as="targetPoint" />
            <Array as="points">
              <mxPoint x="1440" y="100" />
              <mxPoint x="1150" y="100" />
            </Array>
          </mxGeometry>
        </mxCell>
        <mxCell id="FiPmzuWMvT1c0JeipSYL-3" value="" style="endArrow=none;html=1;rounded=0;entryX=0.5;entryY=1;entryDx=0;entryDy=0;exitX=0.5;exitY=0;exitDx=0;exitDy=0;" parent="1" source="aXQiDmJrJk_II0E27TAM-42" target="FiPmzuWMvT1c0JeipSYL-1" edge="1">
          <mxGeometry width="50" height="50" relative="1" as="geometry">
            <mxPoint x="1325" y="210" as="sourcePoint" />
            <mxPoint x="1375" y="160" as="targetPoint" />
            <Array as="points">
              <mxPoint x="1280" y="190" />
              <mxPoint x="1440" y="190" />
            </Array>
          </mxGeometry>
        </mxCell>
        <mxCell id="FiPmzuWMvT1c0JeipSYL-4" value="" style="endArrow=none;html=1;rounded=0;entryX=0.5;entryY=1;entryDx=0;entryDy=0;exitX=0.5;exitY=0;exitDx=0;exitDy=0;" parent="1" source="aXQiDmJrJk_II0E27TAM-40" target="FiPmzuWMvT1c0JeipSYL-1" edge="1">
          <mxGeometry width="50" height="50" relative="1" as="geometry">
            <mxPoint x="1370" y="330" as="sourcePoint" />
            <mxPoint x="1420" y="280" as="targetPoint" />
            <Array as="points">
              <mxPoint x="1440" y="190" />
            </Array>
          </mxGeometry>
        </mxCell>
        <mxCell id="FiPmzuWMvT1c0JeipSYL-5" value="" style="endArrow=none;html=1;rounded=0;entryX=0.5;entryY=1;entryDx=0;entryDy=0;exitX=0.5;exitY=0;exitDx=0;exitDy=0;" parent="1" source="aXQiDmJrJk_II0E27TAM-55" target="FiPmzuWMvT1c0JeipSYL-1" edge="1">
          <mxGeometry width="50" height="50" relative="1" as="geometry">
            <mxPoint x="1370" y="330" as="sourcePoint" />
            <mxPoint x="1420" y="280" as="targetPoint" />
            <Array as="points">
              <mxPoint x="1580" y="190" />
              <mxPoint x="1440" y="190" />
            </Array>
          </mxGeometry>
        </mxCell>
        <mxCell id="FiPmzuWMvT1c0JeipSYL-6" value="(+)" style="text;html=1;align=center;verticalAlign=middle;resizable=0;points=[];autosize=1;strokeColor=none;fillColor=none;" parent="1" vertex="1">
          <mxGeometry x="1500" y="1354" width="40" height="30" as="geometry" />
        </mxCell>
        <mxCell id="FiPmzuWMvT1c0JeipSYL-7" value="(+)" style="text;html=1;align=center;verticalAlign=middle;resizable=0;points=[];autosize=1;strokeColor=none;fillColor=none;" parent="1" vertex="1">
          <mxGeometry x="2330" y="1394" width="40" height="30" as="geometry" />
        </mxCell>
        <mxCell id="qJr4EX-l-Y7D_KPEG_rz-1" value="&lt;span style=&quot;font-size: 12px; text-wrap-mode: wrap;&quot;&gt;ch&lt;/span&gt;" style="html=1;verticalAlign=bottom;startArrow=oval;startFill=1;endArrow=block;startSize=8;curved=0;rounded=0;" parent="1" edge="1">
          <mxGeometry x="1" y="-30" width="60" relative="1" as="geometry">
            <mxPoint x="1290" y="200" as="sourcePoint" />
            <mxPoint x="1290" y="220" as="targetPoint" />
            <mxPoint as="offset" />
          </mxGeometry>
        </mxCell>
        <mxCell id="qJr4EX-l-Y7D_KPEG_rz-2" value="&lt;span style=&quot;font-size: 12px; text-wrap-mode: wrap;&quot;&gt;ch&lt;/span&gt;" style="html=1;verticalAlign=bottom;startArrow=oval;startFill=1;endArrow=block;startSize=8;curved=0;rounded=0;" parent="1" edge="1">
          <mxGeometry x="0.3333" y="-50" width="60" relative="1" as="geometry">
            <mxPoint x="1300" y="1372" as="sourcePoint" />
            <mxPoint x="1300" y="1402" as="targetPoint" />
            <mxPoint as="offset" />
          </mxGeometry>
        </mxCell>
        <mxCell id="qJr4EX-l-Y7D_KPEG_rz-3" value="&lt;span style=&quot;font-size: 12px; text-wrap-mode: wrap;&quot;&gt;ch&lt;/span&gt;" style="html=1;verticalAlign=bottom;startArrow=oval;startFill=1;endArrow=block;startSize=8;curved=0;rounded=0;" parent="1" edge="1">
          <mxGeometry x="0.0667" y="-60" width="60" relative="1" as="geometry">
            <mxPoint x="2140" y="1414" as="sourcePoint" />
            <mxPoint x="2140" y="1444" as="targetPoint" />
            <mxPoint as="offset" />
          </mxGeometry>
        </mxCell>
      </root>
    </mxGraphModel>
  </diagram>
</mxfile>
